<svg xmlns="http://www.w3.org/2000/svg" xmlns:xlink="http://www.w3.org/1999/xlink" width="1060" height="514.2"><rect width="1060" height="514.2" rx="5" ry="5" class="a"/><svg y="0%" x="0%"><circle cx="20" cy="20" r="6" fill="#ff5f58"/><circle cx="40" cy="20" r="6" fill="#ffbd2e"/><circle cx="60" cy="20" r="6" fill="#18c132"/></svg><svg height="434.2" viewBox="0 0 100 43.42" width="1000" x="25" xmlns="http://www.w3.org/2000/svg" xmlns:xlink="http://www.w3.org/1999/xlink" y="60"><style>@keyframes r{0%{transform:translateX(0)}1.45%{transform:translateX(-200px)}1.76%{transform:translateX(-400px)}2.04%{transform:translateX(-500px)}2.44%{transform:translateX(-700px)}3.27%{transform:translateX(-900px)}5.12%{transform:translateX(-1000px)}5.13%{transform:translateX(-1200px)}5.33%{transform:translateX(-1300px)}9.44%{transform:translateX(-1400px)}12.93%{transform:translateX(-1500px)}12.94%{transform:translateX(-1600px)}17.85%{transform:translateX(-1700px)}18.41%{transform:translateX(-1800px)}18.45%{transform:translateX(-1900px)}18.47%{transform:translateX(-2000px)}21.44%{transform:translateX(-2200px)}25.94%{transform:translateX(-2400px)}26.35%{transform:translateX(-2600px)}27.27%{transform:translateX(-2800px)}28.47%{transform:translateX(-2900px)}28.83%{transform:translateX(-3000px)}29.53%{transform:translateX(-3200px)}29.54%{transform:translateX(-3300px)}29.75%{transform:translateX(-3400px)}29.78%{transform:translateX(-3500px)}29.81%{transform:translateX(-3600px)}40.99%{transform:translateX(-3800px)}41.45%{transform:translateX(-3900px)}41.75%{transform:translateX(-4000px)}41.76%{transform:translateX(-4100px)}42.49%{transform:translateX(-4300px)}43.48%{transform:translateX(-4500px)}43.49%{transform:translateX(-4600px)}43.51%{transform:translateX(-4700px)}43.54%{transform:translateX(-4800px)}46.78%{transform:translateX(-5000px)}47.5%{transform:translateX(-5200px)}50.09%{transform:translateX(-5300px)}50.1%{transform:translateX(-5400px)}50.31%{transform:translateX(-5500px)}52.67%{transform:translateX(-5600px)}52.72%{transform:translateX(-5700px)}52.74%{transform:translateX(-5800px)}60.84%{transform:translateX(-6000px)}61.39%{transform:translateX(-6200px)}63.09%{transform:translateX(-6400px)}66.46%{transform:translateX(-6500px)}67.75%{transform:translateX(-6600px)}67.76%{transform:translateX(-6700px)}67.97%{transform:translateX(-6800px)}70.24%{transform:translateX(-6900px)}74.82%{transform:translateX(-7000px)}78.08%{transform:translateX(-7100px)}82.96%{transform:translateX(-7200px)}86.54%{transform:translateX(-7300px)}90.69%{transform:translateX(-7400px)}92.98%{transform:translateX(-7500px)}98.36%{transform:translateX(-7600px)}99.93%{transform:translateX(-7700px)}99.95%{transform:translateX(-8000px)}to{transform:translateX(-8100px)}}.a{fill:#282d35}.f,.g,.h{fill:#d290e4;white-space:pre}.g,.h{fill:#b9c0cb}.h{fill:#71bef2}.i{fill:#e88388;font-weight:700}.i,.j,.k,.l,.m{white-space:pre}.j{fill:#dbab79;font-weight:700}.k,.l,.m{fill:#6f7783}.l,.m{fill:#66c2cd}.m{fill:#dbab79}.n{fill:#a8cc8c}.n,.o,.t{white-space:pre}.o{fill:#a8cc8c;font-weight:700}.t{fill:#e88388}</style><g font-family="Monaco,Consolas,Menlo,'Bitstream Vera Sans Mono','Powerline Symbols',monospace" font-size="1.67"><defs><symbol id="1"><text y="1.67" class="f">~/projects/project</text></symbol><symbol id="2"><text x="1.002" y="1.67" class="f">❯</text></symbol><symbol id="3"><text x="1.002" y="1.67" class="f">❯</text><text x="3.006" y="1.67" class="g">commit_maker</text></symbol><symbol id="4"><text x="1.002" y="1.67" class="f">❯</text><text x="3.006" y="1.67" class="h">commit_maker</text></symbol><symbol id="5"><text y="1.67" class="i">Не</text><text x="3.006" y="1.67" class="i">инициализирован</text><text x="19.038" y="1.67" class="i">git</text><text x="23.046" y="1.67" class="i">репозиторий!</text><text x="36.072" y="1.67" class="g">Выполнить</text><text x="46.092" y="1.67" class="j">git</text><text x="50.1" y="1.67" class="j">init</text><text x="54.108" y="1.67" class="g">?</text><text x="56.112" y="1.67" class="g">[y/N]:</text><text x="63.126" y="1.67" class="g">y</text></symbol><symbol id="6"><text y="1.67" class="g">Сделать</text><text x="8.016" y="1.67" class="g">первый</text><text x="15.03" y="1.67" class="g">коммит</text><text x="22.044" y="1.67" class="g">с</text><text x="24.048" y="1.67" class="g">сообщением</text><text x="35.07" y="1.67" class="j">&apos;Initial</text><text x="44.088" y="1.67" class="j">commit?&apos;</text><text x="53.106" y="1.67" class="g">[y/N]:</text><text x="60.12" y="1.67" class="g">N</text></symbol><symbol id="7"><text y="1.67" class="f">project</text><text x="8.016" y="1.67" class="k"></text><text x="10.02" y="1.67" class="k">master</text><text x="17.034" y="1.67" class="h">?5</text></symbol><symbol id="8"><text x="1.002" y="1.67" class="f">❯</text><text x="3.006" y="1.67" class="h">commit_maker</text><text x="16.032" y="1.67" class="l">-</text></symbol><symbol id="9"><text x="1.002" y="1.67" class="f">❯</text><text x="3.006" y="1.67" class="h">commit_maker</text><text x="16.032" y="1.67" class="l">-d</text></symbol><symbol id="10"><text y="1.67" class="i">Нечего</text><text x="7.014" y="1.67" class="i">коммитить!</text><text x="18.036" y="1.67" class="g">Добавьте</text><text x="27.054" y="1.67" class="g">необходимые</text><text x="39.078" y="1.67" class="g">файлы</text><text x="45.09" y="1.67" class="g">с</text><text x="47.094" y="1.67" class="g">помощью</text><text x="55.11" y="1.67" class="j">git</text><text x="59.118" y="1.67" class="j">add</text><text x="63.126" y="1.67" class="j">&lt;filename&gt;</text></symbol><symbol id="11"><text x="1.002" y="1.67" class="f">❯</text><text x="3.006" y="1.67" class="g">git</text><text x="7.014" y="1.67" class="g">add</text><text x="11.022" y="1.67" class="g">-A</text></symbol><symbol id="12"><text x="1.002" y="1.67" class="f">❯</text><text x="3.006" y="1.67" class="h">git</text><text x="7.014" y="1.67" class="l">add</text><text x="11.022" y="1.67" class="l">-A</text></symbol><symbol id="13"><text y="1.67" class="f">project</text><text x="8.016" y="1.67" class="k"></text><text x="10.02" y="1.67" class="k">master</text><text x="17.034" y="1.67" class="m">~1</text><text x="20.04" y="1.67" class="n">+7</text></symbol><symbol id="14"><text x="1.002" y="1.67" class="f">❯</text><text x="3.006" y="1.67" class="g">commit_maker</text><text x="16.032" y="1.67" class="g">-d</text></symbol><symbol id="15"><text y="1.67" class="i">Обратите</text><text x="9.018" y="1.67" class="i">внимание</text><text x="18.036" y="1.67" class="i">на</text><text x="21.042" y="1.67" class="i">то,</text><text x="25.05" y="1.67" class="i">что</text><text x="29.058" y="1.67" class="i">у</text><text x="31.062" y="1.67" class="i">Вас</text><text x="35.07" y="1.67" class="i">есть</text><text x="40.08" y="1.67" class="i">незастейдженные</text><text x="56.112" y="1.67" class="i">изменения!</text><text x="67.134" y="1.67" class="g">Для</text><text x="71.142" y="1.67" class="g">добавления</text><text x="82.164" y="1.67" class="g">дополнительных</text><text x="97.194" y="1.67" class="g">фай</text></symbol><symbol id="16"><text y="1.67" class="g">лов</text><text x="4.008" y="1.67" class="j">Ctrl</text><text x="9.018" y="1.67" class="j">+</text><text x="11.022" y="1.67" class="j">C</text><text x="13.026" y="1.67" class="g">и</text><text x="15.03" y="1.67" class="g">выполните</text><text x="25.05" y="1.67" class="j">git</text><text x="29.058" y="1.67" class="j">add</text><text x="33.066" y="1.67" class="j">&lt;filename&gt;</text><text x="43.086" y="1.67" class="g">.</text></symbol><symbol id="17"><text y="1.67" class="n">Коммит-месседж</text><text x="15.03" y="1.67" class="n">успешно</text><text x="23.046" y="1.67" class="n">сгенерирован:</text></symbol><symbol id="18"><text y="1.67" class="m">Добавлены</text><text x="10.02" y="1.67" class="m">начальные</text><text x="20.04" y="1.67" class="m">файлы</text><text x="26.052" y="1.67" class="m">проекта</text><text x="34.068" y="1.67" class="m">Flask:</text><text x="41.082" y="1.67" class="m">README.md,</text><text x="52.104" y="1.67" class="m">commit_maker.cast,</text><text x="71.142" y="1.67" class="m">__init__.py,</text><text x="84.168" y="1.67" class="m">routes.py,</text><text x="95.19" y="1.67" class="m">confi</text></symbol><symbol id="19"><text y="1.67" class="m">g.py,</text><text x="6.012" y="1.67" class="m">requirements.txt,</text><text x="24.048" y="1.67" class="m">run.py</text></symbol><symbol id="20"><text y="1.67" class="g">Закоммитить</text><text x="12.024" y="1.67" class="g">с</text><text x="14.028" y="1.67" class="g">сообщением</text><text x="25.05" y="1.67" class="j">&apos;Добавлены</text><text x="36.072" y="1.67" class="j">начальные</text><text x="46.092" y="1.67" class="j">файлы</text><text x="52.104" y="1.67" class="j">проекта</text><text x="60.12" y="1.67" class="j">Flask:</text><text x="67.134" y="1.67" class="j">README.md,</text><text x="78.156" y="1.67" class="j">commit_maker.cast,</text><text x="97.194" y="1.67" class="j">стр</text></symbol><symbol id="21"><text y="1.67" class="j">уктура</text><text x="7.014" y="1.67" class="j">проекта,</text><text x="16.032" y="1.67" class="j">конфигурационные</text><text x="33.066" y="1.67" class="j">файлы</text><text x="39.078" y="1.67" class="j">и</text><text x="41.082" y="1.67" class="j">зависимости.&apos;</text><text x="54.108" y="1.67" class="g">?</text><text x="56.112" y="1.67" class="g">[y/N/r]:</text><text x="65.13" y="1.67" class="g">r</text></symbol><symbol id="22"><text y="1.67" class="g">Закоммитить</text><text x="12.024" y="1.67" class="g">с</text><text x="14.028" y="1.67" class="g">сообщением</text><text x="25.05" y="1.67" class="j">&apos;Добавлены</text><text x="36.072" y="1.67" class="j">начальные</text><text x="46.092" y="1.67" class="j">файлы</text><text x="52.104" y="1.67" class="j">проекта</text><text x="60.12" y="1.67" class="j">Flask:</text><text x="67.134" y="1.67" class="j">README.md,</text><text x="78.156" y="1.67" class="j">commit_maker.cast,</text><text x="97.194" y="1.67" class="j">__i</text></symbol><symbol id="23"><text y="1.67" class="j">nit__.py,</text><text x="10.02" y="1.67" class="j">routes.py,</text><text x="21.042" y="1.67" class="j">config.py,</text><text x="32.064" y="1.67" class="j">requirements.txt,</text><text x="50.1" y="1.67" class="j">run.py&apos;</text><text x="57.114" y="1.67" class="g">?</text><text x="59.118" y="1.67" class="g">[y/N/r]:</text></symbol><symbol id="24"><text y="1.67" class="j">nit__.py,</text><text x="10.02" y="1.67" class="j">routes.py,</text><text x="21.042" y="1.67" class="j">config.py,</text><text x="32.064" y="1.67" class="j">requirements.txt,</text><text x="50.1" y="1.67" class="j">run.py&apos;</text><text x="57.114" y="1.67" class="g">?</text><text x="59.118" y="1.67" class="g">[y/N/r]:</text><text x="68.136" y="1.67" class="g">r</text></symbol><symbol id="25"><text y="1.67" class="j">nit__.py,</text><text x="10.02" y="1.67" class="j">routes.py,</text><text x="21.042" y="1.67" class="j">config.py,</text><text x="32.064" y="1.67" class="j">requirements.txt,</text><text x="50.1" y="1.67" class="j">run.py&apos;</text><text x="57.114" y="1.67" class="g">?</text><text x="59.118" y="1.67" class="g">[y/N/r]:</text><text x="68.136" y="1.67" class="g">y</text></symbol><symbol id="26"><text y="1.67" class="g">[master</text><text x="8.016" y="1.67" class="g">(корневой</text><text x="18.036" y="1.67" class="g">коммит)</text><text x="26.052" y="1.67" class="g">3c3e996]</text><text x="35.07" y="1.67" class="g">Добавлены</text><text x="45.09" y="1.67" class="g">начальные</text><text x="55.11" y="1.67" class="g">файлы</text><text x="61.122" y="1.67" class="g">проекта</text><text x="69.138" y="1.67" class="g">Flask:</text><text x="76.152" y="1.67" class="g">README.md,</text><text x="87.174" y="1.67" class="g">commit_maker.</text></symbol><symbol id="27"><text y="1.67" class="g">cast,</text><text x="6.012" y="1.67" class="g">__init__.py,</text><text x="19.038" y="1.67" class="g">routes.py,</text><text x="30.06" y="1.67" class="g">config.py,</text><text x="41.082" y="1.67" class="g">requirements.txt,</text><text x="59.118" y="1.67" class="g">run.py</text></symbol><symbol id="28"><text x="1.002" y="1.67" class="g">7</text><text x="3.006" y="1.67" class="g">files</text><text x="9.018" y="1.67" class="g">changed,</text><text x="18.036" y="1.67" class="g">110</text><text x="22.044" y="1.67" class="g">insertions(+)</text></symbol><symbol id="29"><text x="1.002" y="1.67" class="g">create</text><text x="8.016" y="1.67" class="g">mode</text><text x="13.026" y="1.67" class="g">100644</text><text x="20.04" y="1.67" class="g">README.md</text></symbol><symbol id="30"><text x="1.002" y="1.67" class="g">create</text><text x="8.016" y="1.67" class="g">mode</text><text x="13.026" y="1.67" class="g">100644</text><text x="20.04" y="1.67" class="g">commit_maker.cast</text></symbol><symbol id="31"><text x="1.002" y="1.67" class="g">create</text><text x="8.016" y="1.67" class="g">mode</text><text x="13.026" y="1.67" class="g">100644</text><text x="20.04" y="1.67" class="g">project/__init__.py</text></symbol><symbol id="32"><text x="1.002" y="1.67" class="g">create</text><text x="8.016" y="1.67" class="g">mode</text><text x="13.026" y="1.67" class="g">100644</text><text x="20.04" y="1.67" class="g">project/app/routes.py</text></symbol><symbol id="33"><text x="1.002" y="1.67" class="g">create</text><text x="8.016" y="1.67" class="g">mode</text><text x="13.026" y="1.67" class="g">100644</text><text x="20.04" y="1.67" class="g">project/config.py</text></symbol><symbol id="34"><text x="1.002" y="1.67" class="g">create</text><text x="8.016" y="1.67" class="g">mode</text><text x="13.026" y="1.67" class="g">100644</text><text x="20.04" y="1.67" class="g">requirements.txt</text></symbol><symbol id="35"><text x="1.002" y="1.67" class="g">create</text><text x="8.016" y="1.67" class="g">mode</text><text x="13.026" y="1.67" class="g">100644</text><text x="20.04" y="1.67" class="g">run.py</text></symbol><symbol id="36"><text y="1.67" class="o">Коммит</text><text x="7.014" y="1.67" class="o">успешно</text><text x="15.03" y="1.67" class="o">создан!</text></symbol><symbol id="a"><path fill="transparent" d="M0 0h100v21H0z"/></symbol><symbol id="b"><path fill="#6f7683" d="M0 0h1.102v2.171H0z"/></symbol></defs><path class="a" d="M0 0h100v43.42H0z"/><g style="animation-duration:42.93572s;animation-iteration-count:infinite;animation-name:r;animation-timing-function:steps(1,end)"><svg width="8200"><svg><use xlink:href="#a"/><use xlink:href="#b" x="2.996" y="6.488"/><use xlink:href="#1" y="4.342"/><use xlink:href="#2" y="6.513"/></svg><svg x="100"><use xlink:href="#a"/><use xlink:href="#b" x="3.996" y="6.488"/><use xlink:href="#1" y="4.342"/><text x="1.002" y="8.183" class="f">❯</text><text x="3.006" y="8.183" class="g">c</text></svg><svg x="200"><use xlink:href="#a"/><use xlink:href="#b" x="3.996" y="6.488"/><use xlink:href="#1" y="4.342"/><text x="1.002" y="8.183" class="f">❯</text><text x="3.006" y="8.183" class="h">c</text></svg><svg x="300"><use xlink:href="#a"/><use xlink:href="#b" x="4.996" y="6.488"/><use xlink:href="#1" y="4.342"/><text x="1.002" y="8.183" class="f">❯</text><text x="3.006" y="8.183" class="h">co</text></svg><svg x="400"><use xlink:href="#a"/><use xlink:href="#b" x="4.996" y="6.488"/><use xlink:href="#1" y="4.342"/><text x="1.002" y="8.183" class="f">❯</text><text x="3.006" y="8.183" class="t">co</text><text x="5.01" y="8.183" class="k">mmit_maker</text></svg><svg x="500"><use xlink:href="#a"/><use xlink:href="#b" x="5.996" y="6.488"/><use xlink:href="#1" y="4.342"/><text x="1.002" y="8.183" class="f">❯</text><text x="3.006" y="8.183" class="t">com</text><text x="6.012" y="8.183" class="k">mit_maker</text></svg><svg x="600"><use xlink:href="#a"/><use xlink:href="#b" x="6.996" y="6.488"/><use xlink:href="#1" y="4.342"/><text x="1.002" y="8.183" class="f">❯</text><text x="3.006" y="8.183" class="t">comm</text><text x="7.014" y="8.183" class="k">it_maker</text></svg><svg x="700"><use xlink:href="#a"/><use xlink:href="#b" x="6.996" y="6.488"/><use xlink:href="#1" y="4.342"/><text x="1.002" y="8.183" class="f">❯</text><text x="3.006" y="8.183" class="h">comm</text><text x="7.014" y="8.183" class="k">it_maker</text></svg><svg x="800"><use xlink:href="#a"/><use xlink:href="#b" x="14.996" y="6.488"/><use xlink:href="#1" y="4.342"/><use xlink:href="#3" y="6.513"/></svg><svg x="900"><use xlink:href="#a"/><use xlink:href="#b" x="14.996" y="6.488"/><use xlink:href="#1" y="4.342"/><use xlink:href="#4" y="6.513"/></svg><svg x="1000"><use xlink:href="#a"/><use xlink:href="#b" x="-.004" y="8.659"/><use xlink:href="#1" y="4.342"/><use xlink:href="#4" y="6.513"/></svg><svg x="1100"><use xlink:href="#a"/><use xlink:href="#b" x="-.004" y="8.659"/><use xlink:href="#1" y="4.342"/><use xlink:href="#4" y="6.513"/></svg><svg x="1200"><use xlink:href="#a"/><use xlink:href="#b" x="-.004" y="8.659"/><use xlink:href="#1" y="4.342"/><use xlink:href="#4" y="6.513"/></svg><svg x="1300"><use xlink:href="#a"/><use xlink:href="#b" x="62.996" y="8.659"/><use xlink:href="#1" y="4.342"/><use xlink:href="#4" y="6.513"/><text y="10.354" class="i">Не</text><text x="3.006" y="10.354" class="i">инициализирован</text><text x="19.038" y="10.354" class="i">git</text><text x="23.046" y="10.354" class="i">репозиторий!</text><text x="36.072" y="10.354" class="g">Выполнить</text><text x="46.092" y="10.354" class="j">git</text><text x="50.1" y="10.354" class="j">init</text><text x="54.108" y="10.354" class="g">?</text><text x="56.112" y="10.354" class="g">[y/N]:</text></svg><svg x="1400"><use xlink:href="#a"/><use xlink:href="#b" x="63.996" y="8.659"/><use xlink:href="#1" y="4.342"/><use xlink:href="#4" y="6.513"/><use xlink:href="#5" y="8.684"/></svg><svg x="1500"><use xlink:href="#a"/><use xlink:href="#b" x="-.004" y="10.83"/><use xlink:href="#1" y="4.342"/><use xlink:href="#4" y="6.513"/><use xlink:href="#5" y="8.684"/></svg><svg x="1600"><use xlink:href="#a"/><use xlink:href="#b" x="59.996" y="10.83"/><use xlink:href="#1" y="4.342"/><use xlink:href="#4" y="6.513"/><use xlink:href="#5" y="8.684"/><text y="12.525" class="g">Сделать</text><text x="8.016" y="12.525" class="g">первый</text><text x="15.03" y="12.525" class="g">коммит</text><text x="22.044" y="12.525" class="g">с</text><text x="24.048" y="12.525" class="g">сообщением</text><text x="35.07" y="12.525" class="j">&apos;Initial</text><text x="44.088" y="12.525" class="j">commit?&apos;</text><text x="53.106" y="12.525" class="g">[y/N]:</text></svg><svg x="1700"><use xlink:href="#a"/><use xlink:href="#b" x="60.996" y="10.83"/><use xlink:href="#1" y="4.342"/><use xlink:href="#4" y="6.513"/><use xlink:href="#5" y="8.684"/><use xlink:href="#6" y="10.855"/></svg><svg x="1800"><use xlink:href="#a"/><use xlink:href="#b" x="-.004" y="13.001"/><use xlink:href="#1" y="4.342"/><use xlink:href="#4" y="6.513"/><use xlink:href="#5" y="8.684"/><use xlink:href="#6" y="10.855"/></svg><svg x="1900"><use xlink:href="#a"/><use xlink:href="#b" x="-.004" y="15.172"/><use xlink:href="#1" y="4.342"/><use xlink:href="#4" y="6.513"/><use xlink:href="#5" y="8.684"/><use xlink:href="#6" y="10.855"/></svg><svg x="2000"><use xlink:href="#a"/><use xlink:href="#b" x="2.996" y="19.514"/><use xlink:href="#1" y="4.342"/><use xlink:href="#4" y="6.513"/><use xlink:href="#5" y="8.684"/><use xlink:href="#6" y="10.855"/><use xlink:href="#7" y="17.368"/><use xlink:href="#2" y="19.539"/></svg><svg x="2100"><use xlink:href="#a"/><use xlink:href="#b" x="14.996" y="19.514"/><use xlink:href="#1" y="4.342"/><use xlink:href="#4" y="6.513"/><use xlink:href="#5" y="8.684"/><use xlink:href="#6" y="10.855"/><use xlink:href="#7" y="17.368"/><use xlink:href="#3" y="19.539"/></svg><svg x="2200"><use xlink:href="#a"/><use xlink:href="#b" x="14.996" y="19.514"/><use xlink:href="#1" y="4.342"/><use xlink:href="#4" y="6.513"/><use xlink:href="#5" y="8.684"/><use xlink:href="#6" y="10.855"/><use xlink:href="#7" y="17.368"/><use xlink:href="#4" y="19.539"/></svg><svg x="2300"><use xlink:href="#a"/><use xlink:href="#b" x="15.996" y="19.514"/><use xlink:href="#1" y="4.342"/><use xlink:href="#4" y="6.513"/><use xlink:href="#5" y="8.684"/><use xlink:href="#6" y="10.855"/><use xlink:href="#7" y="17.368"/><use xlink:href="#4" y="19.539"/></svg><svg x="2400"><use xlink:href="#a"/><use xlink:href="#b" x="15.996" y="19.514"/><use xlink:href="#1" y="4.342"/><use xlink:href="#4" y="6.513"/><use xlink:href="#5" y="8.684"/><use xlink:href="#6" y="10.855"/><use xlink:href="#7" y="17.368"/><text x="1.002" y="21.209" class="f">❯</text><text x="3.006" y="21.209" class="h">commit_maker</text><text x="16.032" y="21.209" class="k">-d</text></svg><svg x="2500"><use xlink:href="#a"/><use xlink:href="#b" x="16.996" y="19.514"/><use xlink:href="#1" y="4.342"/><use xlink:href="#4" y="6.513"/><use xlink:href="#5" y="8.684"/><use xlink:href="#6" y="10.855"/><use xlink:href="#7" y="17.368"/><text x="1.002" y="21.209" class="f">❯</text><text x="3.006" y="21.209" class="h">commit_maker</text><text x="16.032" y="21.209" class="g">-</text><text x="17.034" y="21.209" class="k">d</text></svg><svg x="2600"><use xlink:href="#a"/><use xlink:href="#b" x="16.996" y="19.514"/><use xlink:href="#1" y="4.342"/><use xlink:href="#4" y="6.513"/><use xlink:href="#5" y="8.684"/><use xlink:href="#6" y="10.855"/><use xlink:href="#7" y="17.368"/><text x="1.002" y="21.209" class="f">❯</text><text x="3.006" y="21.209" class="h">commit_maker</text><text x="16.032" y="21.209" class="l">-</text><text x="17.034" y="21.209" class="k">d</text></svg><svg x="2700"><use xlink:href="#a"/><use xlink:href="#b" x="17.996" y="19.514"/><use xlink:href="#1" y="4.342"/><use xlink:href="#4" y="6.513"/><use xlink:href="#5" y="8.684"/><use xlink:href="#6" y="10.855"/><use xlink:href="#7" y="17.368"/><use xlink:href="#8" y="19.539"/></svg><svg x="2800"><use xlink:href="#a"/><use xlink:href="#b" x="17.996" y="19.514"/><use xlink:href="#1" y="4.342"/><use xlink:href="#4" y="6.513"/><use xlink:href="#5" y="8.684"/><use xlink:href="#6" y="10.855"/><use xlink:href="#7" y="17.368"/><use xlink:href="#8" y="19.539"/></svg><svg x="2900"><use xlink:href="#a"/><use xlink:href="#b" x="16.996" y="19.514"/><use xlink:href="#1" y="4.342"/><use xlink:href="#4" y="6.513"/><use xlink:href="#5" y="8.684"/><use xlink:href="#6" y="10.855"/><use xlink:href="#7" y="17.368"/><use xlink:href="#8" y="19.539"/></svg><svg x="3000"><use xlink:href="#a"/><use xlink:href="#b" x="17.996" y="19.514"/><use xlink:href="#1" y="4.342"/><use xlink:href="#4" y="6.513"/><use xlink:href="#5" y="8.684"/><use xlink:href="#6" y="10.855"/><use xlink:href="#7" y="17.368"/><use xlink:href="#9" y="19.539"/></svg><svg x="3100"><use xlink:href="#a"/><use xlink:href="#b" x="-.004" y="21.685"/><use xlink:href="#1" y="4.342"/><use xlink:href="#4" y="6.513"/><use xlink:href="#5" y="8.684"/><use xlink:href="#6" y="10.855"/><use xlink:href="#7" y="17.368"/><use xlink:href="#9" y="19.539"/></svg><svg x="3200"><use xlink:href="#a"/><use xlink:href="#b" x="-.004" y="21.685"/><use xlink:href="#1" y="4.342"/><use xlink:href="#4" y="6.513"/><use xlink:href="#5" y="8.684"/><use xlink:href="#6" y="10.855"/><use xlink:href="#7" y="17.368"/><use xlink:href="#9" y="19.539"/></svg><svg x="3300"><use xlink:href="#a"/><use xlink:href="#b" x="-.004" y="21.685"/><use xlink:href="#1" y="4.342"/><use xlink:href="#4" y="6.513"/><use xlink:href="#5" y="8.684"/><use xlink:href="#6" y="10.855"/><use xlink:href="#7" y="17.368"/><use xlink:href="#9" y="19.539"/></svg><svg x="3400"><use xlink:href="#a"/><use xlink:href="#b" x="-.004" y="23.856"/><use xlink:href="#1" y="4.342"/><use xlink:href="#4" y="6.513"/><use xlink:href="#5" y="8.684"/><use xlink:href="#6" y="10.855"/><use xlink:href="#7" y="17.368"/><use xlink:href="#9" y="19.539"/><use xlink:href="#10" y="21.71"/></svg><svg x="3500"><use xlink:href="#a"/><use xlink:href="#b" x="-.004" y="26.027"/><use xlink:href="#1" y="4.342"/><use xlink:href="#4" y="6.513"/><use xlink:href="#5" y="8.684"/><use xlink:href="#6" y="10.855"/><use xlink:href="#7" y="17.368"/><use xlink:href="#9" y="19.539"/><use xlink:href="#10" y="21.71"/></svg><svg x="3600"><use xlink:href="#a"/><use xlink:href="#b" x="2.996" y="30.369"/><use xlink:href="#1" y="4.342"/><use xlink:href="#4" y="6.513"/><use xlink:href="#5" y="8.684"/><use xlink:href="#6" y="10.855"/><use xlink:href="#7" y="17.368"/><use xlink:href="#9" y="19.539"/><use xlink:href="#10" y="21.71"/><use xlink:href="#7" y="28.223"/><use xlink:href="#2" y="30.394"/></svg><svg x="3700"><use xlink:href="#a"/><use xlink:href="#b" x="3.996" y="30.369"/><use xlink:href="#1" y="4.342"/><use xlink:href="#4" y="6.513"/><use xlink:href="#5" y="8.684"/><use xlink:href="#6" y="10.855"/><use xlink:href="#7" y="17.368"/><use xlink:href="#9" y="19.539"/><use xlink:href="#10" y="21.71"/><use xlink:href="#7" y="28.223"/><text x="1.002" y="32.064" class="f">❯</text><text x="3.006" y="32.064" class="g">g</text></svg><svg x="3800"><use xlink:href="#a"/><use xlink:href="#b" x="3.996" y="30.369"/><use xlink:href="#1" y="4.342"/><use xlink:href="#4" y="6.513"/><use xlink:href="#5" y="8.684"/><use xlink:href="#6" y="10.855"/><use xlink:href="#7" y="17.368"/><use xlink:href="#9" y="19.539"/><use xlink:href="#10" y="21.71"/><use xlink:href="#7" y="28.223"/><text x="1.002" y="32.064" class="f">❯</text><text x="3.006" y="32.064" class="t">g</text><text x="4.008" y="32.064" class="k">it</text><text x="7.014" y="32.064" class="k">add</text><text x="11.022" y="32.064" class="k">-A</text></svg><svg x="3900"><use xlink:href="#a"/><use xlink:href="#b" x="4.996" y="30.369"/><use xlink:href="#1" y="4.342"/><use xlink:href="#4" y="6.513"/><use xlink:href="#5" y="8.684"/><use xlink:href="#6" y="10.855"/><use xlink:href="#7" y="17.368"/><use xlink:href="#9" y="19.539"/><use xlink:href="#10" y="21.71"/><use xlink:href="#7" y="28.223"/><text x="1.002" y="32.064" class="f">❯</text><text x="3.006" y="32.064" class="t">gi</text><text x="5.01" y="32.064" class="k">t</text><text x="7.014" y="32.064" class="k">add</text><text x="11.022" y="32.064" class="k">-A</text></svg><svg x="4000"><use xlink:href="#a"/><use xlink:href="#b" x="5.996" y="30.369"/><use xlink:href="#1" y="4.342"/><use xlink:href="#4" y="6.513"/><use xlink:href="#5" y="8.684"/><use xlink:href="#6" y="10.855"/><use xlink:href="#7" y="17.368"/><use xlink:href="#9" y="19.539"/><use xlink:href="#10" y="21.71"/><use xlink:href="#7" y="28.223"/><text x="1.002" y="32.064" class="f">❯</text><text x="3.006" y="32.064" class="t">git</text><text x="7.014" y="32.064" class="k">add</text><text x="11.022" y="32.064" class="k">-A</text></svg><svg x="4100"><use xlink:href="#a"/><use xlink:href="#b" x="5.996" y="30.369"/><use xlink:href="#1" y="4.342"/><use xlink:href="#4" y="6.513"/><use xlink:href="#5" y="8.684"/><use xlink:href="#6" y="10.855"/><use xlink:href="#7" y="17.368"/><use xlink:href="#9" y="19.539"/><use xlink:href="#10" y="21.71"/><use xlink:href="#7" y="28.223"/><text x="1.002" y="32.064" class="f">❯</text><text x="3.006" y="32.064" class="h">git</text><text x="7.014" y="32.064" class="k">add</text><text x="11.022" y="32.064" class="k">-A</text></svg><svg x="4200"><use xlink:href="#a"/><use xlink:href="#b" x="12.996" y="30.369"/><use xlink:href="#1" y="4.342"/><use xlink:href="#4" y="6.513"/><use xlink:href="#5" y="8.684"/><use xlink:href="#6" y="10.855"/><use xlink:href="#7" y="17.368"/><use xlink:href="#9" y="19.539"/><use xlink:href="#10" y="21.71"/><use xlink:href="#7" y="28.223"/><use xlink:href="#11" y="30.394"/></svg><svg x="4300"><use xlink:href="#a"/><use xlink:href="#b" x="12.996" y="30.369"/><use xlink:href="#1" y="4.342"/><use xlink:href="#4" y="6.513"/><use xlink:href="#5" y="8.684"/><use xlink:href="#6" y="10.855"/><use xlink:href="#7" y="17.368"/><use xlink:href="#9" y="19.539"/><use xlink:href="#10" y="21.71"/><use xlink:href="#7" y="28.223"/><use xlink:href="#12" y="30.394"/></svg><svg x="4400"><use xlink:href="#a"/><use xlink:href="#b" x="-.004" y="32.54"/><use xlink:href="#1" y="4.342"/><use xlink:href="#4" y="6.513"/><use xlink:href="#5" y="8.684"/><use xlink:href="#6" y="10.855"/><use xlink:href="#7" y="17.368"/><use xlink:href="#9" y="19.539"/><use xlink:href="#10" y="21.71"/><use xlink:href="#7" y="28.223"/><use xlink:href="#12" y="30.394"/></svg><svg x="4500"><use xlink:href="#a"/><use xlink:href="#b" x="-.004" y="32.54"/><use xlink:href="#1" y="4.342"/><use xlink:href="#4" y="6.513"/><use xlink:href="#5" y="8.684"/><use xlink:href="#6" y="10.855"/><use xlink:href="#7" y="17.368"/><use xlink:href="#9" y="19.539"/><use xlink:href="#10" y="21.71"/><use xlink:href="#7" y="28.223"/><use xlink:href="#12" y="30.394"/></svg><svg x="4600"><use xlink:href="#a"/><use xlink:href="#b" x="-.004" y="32.54"/><use xlink:href="#1" y="4.342"/><use xlink:href="#4" y="6.513"/><use xlink:href="#5" y="8.684"/><use xlink:href="#6" y="10.855"/><use xlink:href="#7" y="17.368"/><use xlink:href="#9" y="19.539"/><use xlink:href="#10" y="21.71"/><use xlink:href="#7" y="28.223"/><use xlink:href="#12" y="30.394"/></svg><svg x="4700"><use xlink:href="#a"/><use xlink:href="#b" x="-.004" y="34.711"/><use xlink:href="#1" y="4.342"/><use xlink:href="#4" y="6.513"/><use xlink:href="#5" y="8.684"/><use xlink:href="#6" y="10.855"/><use xlink:href="#7" y="17.368"/><use xlink:href="#9" y="19.539"/><use xlink:href="#10" y="21.71"/><use xlink:href="#7" y="28.223"/><use xlink:href="#12" y="30.394"/></svg><svg x="4800"><use xlink:href="#a"/><use xlink:href="#b" x="2.996" y="39.053"/><use xlink:href="#1" y="4.342"/><use xlink:href="#4" y="6.513"/><use xlink:href="#5" y="8.684"/><use xlink:href="#6" y="10.855"/><use xlink:href="#7" y="17.368"/><use xlink:href="#9" y="19.539"/><use xlink:href="#10" y="21.71"/><use xlink:href="#7" y="28.223"/><use xlink:href="#12" y="30.394"/><use xlink:href="#13" y="36.907"/><use xlink:href="#2" y="39.078"/></svg><svg x="4900"><use xlink:href="#a"/><use xlink:href="#b" x="12.996" y="39.053"/><use xlink:href="#1" y="4.342"/><use xlink:href="#4" y="6.513"/><use xlink:href="#5" y="8.684"/><use xlink:href="#6" y="10.855"/><use xlink:href="#7" y="17.368"/><use xlink:href="#9" y="19.539"/><use xlink:href="#10" y="21.71"/><use xlink:href="#7" y="28.223"/><use xlink:href="#12" y="30.394"/><use xlink:href="#13" y="36.907"/><use xlink:href="#11" y="39.078"/></svg><svg x="5000"><use xlink:href="#a"/><use xlink:href="#b" x="12.996" y="39.053"/><use xlink:href="#1" y="4.342"/><use xlink:href="#4" y="6.513"/><use xlink:href="#5" y="8.684"/><use xlink:href="#6" y="10.855"/><use xlink:href="#7" y="17.368"/><use xlink:href="#9" y="19.539"/><use xlink:href="#10" y="21.71"/><use xlink:href="#7" y="28.223"/><use xlink:href="#12" y="30.394"/><use xlink:href="#13" y="36.907"/><use xlink:href="#12" y="39.078"/></svg><svg x="5100"><use xlink:href="#a"/><use xlink:href="#b" x="17.996" y="39.053"/><use xlink:href="#1" y="4.342"/><use xlink:href="#4" y="6.513"/><use xlink:href="#5" y="8.684"/><use xlink:href="#6" y="10.855"/><use xlink:href="#7" y="17.368"/><use xlink:href="#9" y="19.539"/><use xlink:href="#10" y="21.71"/><use xlink:href="#7" y="28.223"/><use xlink:href="#12" y="30.394"/><use xlink:href="#13" y="36.907"/><use xlink:href="#14" y="39.078"/></svg><svg x="5200"><use xlink:href="#a"/><use xlink:href="#b" x="17.996" y="39.053"/><use xlink:href="#1" y="4.342"/><use xlink:href="#4" y="6.513"/><use xlink:href="#5" y="8.684"/><use xlink:href="#6" y="10.855"/><use xlink:href="#7" y="17.368"/><use xlink:href="#9" y="19.539"/><use xlink:href="#10" y="21.71"/><use xlink:href="#7" y="28.223"/><use xlink:href="#12" y="30.394"/><use xlink:href="#13" y="36.907"/><use xlink:href="#9" y="39.078"/></svg><svg x="5300"><use xlink:href="#a"/><use xlink:href="#b" x="-.004" y="41.224"/><use xlink:href="#1" y="4.342"/><use xlink:href="#4" y="6.513"/><use xlink:href="#5" y="8.684"/><use xlink:href="#6" y="10.855"/><use xlink:href="#7" y="17.368"/><use xlink:href="#9" y="19.539"/><use xlink:href="#10" y="21.71"/><use xlink:href="#7" y="28.223"/><use xlink:href="#12" y="30.394"/><use xlink:href="#13" y="36.907"/><use xlink:href="#9" y="39.078"/></svg><svg x="5400"><use xlink:href="#a"/><use xlink:href="#b" x="-.004" y="41.224"/><use xlink:href="#1" y="4.342"/><use xlink:href="#4" y="6.513"/><use xlink:href="#5" y="8.684"/><use xlink:href="#6" y="10.855"/><use xlink:href="#7" y="17.368"/><use xlink:href="#9" y="19.539"/><use xlink:href="#10" y="21.71"/><use xlink:href="#7" y="28.223"/><use xlink:href="#12" y="30.394"/><use xlink:href="#13" y="36.907"/><use xlink:href="#9" y="39.078"/></svg><svg x="5500"><use xlink:href="#a"/><use xlink:href="#b" x="-.004" y="43.395"/><use xlink:href="#1" y="2.171"/><use xlink:href="#4" y="4.342"/><use xlink:href="#5" y="6.513"/><use xlink:href="#6" y="8.684"/><use xlink:href="#7" y="15.197"/><use xlink:href="#9" y="17.368"/><use xlink:href="#10" y="19.539"/><use xlink:href="#7" y="26.052"/><use xlink:href="#12" y="28.223"/><use xlink:href="#13" y="34.736"/><use xlink:href="#9" y="36.907"/><use xlink:href="#15" y="39.078"/><use xlink:href="#16" y="41.249"/></svg><svg x="5600"><use xlink:href="#a"/><use xlink:href="#b" x="-.004" y="43.395"/><use xlink:href="#5"/><use xlink:href="#6" y="2.171"/><use xlink:href="#7" y="8.684"/><use xlink:href="#9" y="10.855"/><use xlink:href="#10" y="13.026"/><use xlink:href="#7" y="19.539"/><use xlink:href="#12" y="21.71"/><use xlink:href="#13" y="28.223"/><use xlink:href="#9" y="30.394"/><use xlink:href="#15" y="32.565"/><use xlink:href="#16" y="34.736"/><use xlink:href="#17" y="36.907"/><use xlink:href="#18" y="39.078"/><use xlink:href="#19" y="41.249"/></svg><svg x="5700"><use xlink:href="#a"/><use xlink:href="#b" x="-.004" y="43.395"/><use xlink:href="#6"/><use xlink:href="#7" y="6.513"/><use xlink:href="#9" y="8.684"/><use xlink:href="#10" y="10.855"/><use xlink:href="#7" y="17.368"/><use xlink:href="#12" y="19.539"/><use xlink:href="#13" y="26.052"/><use xlink:href="#9" y="28.223"/><use xlink:href="#15" y="30.394"/><use xlink:href="#16" y="32.565"/><use xlink:href="#17" y="34.736"/><use xlink:href="#18" y="36.907"/><use xlink:href="#19" y="39.078"/></svg><svg x="5800"><use xlink:href="#a"/><use xlink:href="#b" x="2.996" y="43.395"/><use xlink:href="#7" y="2.171"/><use xlink:href="#9" y="4.342"/><use xlink:href="#10" y="6.513"/><use xlink:href="#7" y="13.026"/><use xlink:href="#12" y="15.197"/><use xlink:href="#13" y="21.71"/><use xlink:href="#9" y="23.881"/><use xlink:href="#15" y="26.052"/><use xlink:href="#16" y="28.223"/><use xlink:href="#17" y="30.394"/><use xlink:href="#18" y="32.565"/><use xlink:href="#19" y="34.736"/><use xlink:href="#13" y="41.249"/><use xlink:href="#2" y="43.42"/></svg><svg x="5900"><use xlink:href="#a"/><use xlink:href="#b" x="17.996" y="43.395"/><use xlink:href="#7" y="2.171"/><use xlink:href="#9" y="4.342"/><use xlink:href="#10" y="6.513"/><use xlink:href="#7" y="13.026"/><use xlink:href="#12" y="15.197"/><use xlink:href="#13" y="21.71"/><use xlink:href="#9" y="23.881"/><use xlink:href="#15" y="26.052"/><use xlink:href="#16" y="28.223"/><use xlink:href="#17" y="30.394"/><use xlink:href="#18" y="32.565"/><use xlink:href="#19" y="34.736"/><use xlink:href="#13" y="41.249"/><use xlink:href="#14" y="43.42"/></svg><svg x="6000"><use xlink:href="#a"/><use xlink:href="#b" x="17.996" y="43.395"/><use xlink:href="#7" y="2.171"/><use xlink:href="#9" y="4.342"/><use xlink:href="#10" y="6.513"/><use xlink:href="#7" y="13.026"/><use xlink:href="#12" y="15.197"/><use xlink:href="#13" y="21.71"/><use xlink:href="#9" y="23.881"/><use xlink:href="#15" y="26.052"/><use xlink:href="#16" y="28.223"/><use xlink:href="#17" y="30.394"/><use xlink:href="#18" y="32.565"/><use xlink:href="#19" y="34.736"/><use xlink:href="#13" y="41.249"/><use xlink:href="#9" y="43.42"/></svg><svg x="6100"><use xlink:href="#a"/><use xlink:href="#b" x="12.996" y="43.395"/><use xlink:href="#7" y="2.171"/><use xlink:href="#9" y="4.342"/><use xlink:href="#10" y="6.513"/><use xlink:href="#7" y="13.026"/><use xlink:href="#12" y="15.197"/><use xlink:href="#13" y="21.71"/><use xlink:href="#9" y="23.881"/><use xlink:href="#15" y="26.052"/><use xlink:href="#16" y="28.223"/><use xlink:href="#17" y="30.394"/><use xlink:href="#18" y="32.565"/><use xlink:href="#19" y="34.736"/><use xlink:href="#13" y="41.249"/><use xlink:href="#11" y="43.42"/></svg><svg x="6200"><use xlink:href="#a"/><use xlink:href="#b" x="12.996" y="43.395"/><use xlink:href="#7" y="2.171"/><use xlink:href="#9" y="4.342"/><use xlink:href="#10" y="6.513"/><use xlink:href="#7" y="13.026"/><use xlink:href="#12" y="15.197"/><use xlink:href="#13" y="21.71"/><use xlink:href="#9" y="23.881"/><use xlink:href="#15" y="26.052"/><use xlink:href="#16" y="28.223"/><use xlink:href="#17" y="30.394"/><use xlink:href="#18" y="32.565"/><use xlink:href="#19" y="34.736"/><use xlink:href="#13" y="41.249"/><use xlink:href="#12" y="43.42"/></svg><svg x="6300"><use xlink:href="#a"/><use xlink:href="#b" x="17.996" y="43.395"/><use xlink:href="#7" y="2.171"/><use xlink:href="#9" y="4.342"/><use xlink:href="#10" y="6.513"/><use xlink:href="#7" y="13.026"/><use xlink:href="#12" y="15.197"/><use xlink:href="#13" y="21.71"/><use xlink:href="#9" y="23.881"/><use xlink:href="#15" y="26.052"/><use xlink:href="#16" y="28.223"/><use xlink:href="#17" y="30.394"/><use xlink:href="#18" y="32.565"/><use xlink:href="#19" y="34.736"/><use xlink:href="#13" y="41.249"/><use xlink:href="#14" y="43.42"/></svg><svg x="6400"><use xlink:href="#a"/><use xlink:href="#b" x="17.996" y="43.395"/><use xlink:href="#7" y="2.171"/><use xlink:href="#9" y="4.342"/><use xlink:href="#10" y="6.513"/><use xlink:href="#7" y="13.026"/><use xlink:href="#12" y="15.197"/><use xlink:href="#13" y="21.71"/><use xlink:href="#9" y="23.881"/><use xlink:href="#15" y="26.052"/><use xlink:href="#16" y="28.223"/><use xlink:href="#17" y="30.394"/><use xlink:href="#18" y="32.565"/><use xlink:href="#19" y="34.736"/><use xlink:href="#13" y="41.249"/><use xlink:href="#9" y="43.42"/></svg><svg x="6500"><use xlink:href="#a"/><use xlink:href="#b" x="15.996" y="43.395"/><use xlink:href="#7" y="2.171"/><use xlink:href="#9" y="4.342"/><use xlink:href="#10" y="6.513"/><use xlink:href="#7" y="13.026"/><use xlink:href="#12" y="15.197"/><use xlink:href="#13" y="21.71"/><use xlink:href="#9" y="23.881"/><use xlink:href="#15" y="26.052"/><use xlink:href="#16" y="28.223"/><use xlink:href="#17" y="30.394"/><use xlink:href="#18" y="32.565"/><use xlink:href="#19" y="34.736"/><use xlink:href="#13" y="41.249"/><use xlink:href="#4" y="43.42"/></svg><svg x="6600"><use xlink:href="#a"/><use xlink:href="#b" x="-.004" y="43.395"/><use xlink:href="#7"/><use xlink:href="#9" y="2.171"/><use xlink:href="#10" y="4.342"/><use xlink:href="#7" y="10.855"/><use xlink:href="#12" y="13.026"/><use xlink:href="#13" y="19.539"/><use xlink:href="#9" y="21.71"/><use xlink:href="#15" y="23.881"/><use xlink:href="#16" y="26.052"/><use xlink:href="#17" y="28.223"/><use xlink:href="#18" y="30.394"/><use xlink:href="#19" y="32.565"/><use xlink:href="#13" y="39.078"/><use xlink:href="#4" y="41.249"/></svg><svg x="6700"><use xlink:href="#a"/><use xlink:href="#b" x="-.004" y="43.395"/><use xlink:href="#7"/><use xlink:href="#9" y="2.171"/><use xlink:href="#10" y="4.342"/><use xlink:href="#7" y="10.855"/><use xlink:href="#12" y="13.026"/><use xlink:href="#13" y="19.539"/><use xlink:href="#9" y="21.71"/><use xlink:href="#15" y="23.881"/><use xlink:href="#16" y="26.052"/><use xlink:href="#17" y="28.223"/><use xlink:href="#18" y="30.394"/><use xlink:href="#19" y="32.565"/><use xlink:href="#13" y="39.078"/><use xlink:href="#4" y="41.249"/></svg><svg x="6800"><use xlink:href="#a"/><use xlink:href="#b" x="-.004" y="43.395"/><use xlink:href="#10"/><use xlink:href="#7" y="6.513"/><use xlink:href="#12" y="8.684"/><use xlink:href="#13" y="15.197"/><use xlink:href="#9" y="17.368"/><use xlink:href="#15" y="19.539"/><use xlink:href="#16" y="21.71"/><use xlink:href="#17" y="23.881"/><use xlink:href="#18" y="26.052"/><use xlink:href="#19" y="28.223"/><use xlink:href="#13" y="34.736"/><use xlink:href="#4" y="36.907"/><use xlink:href="#15" y="39.078"/><use xlink:href="#16" y="41.249"/></svg><svg x="6900"><use xlink:href="#a"/><use xlink:href="#b" x="64.996" y="43.395"/><use xlink:href="#7" y="4.342"/><use xlink:href="#12" y="6.513"/><use xlink:href="#13" y="13.026"/><use xlink:href="#9" y="15.197"/><use xlink:href="#15" y="17.368"/><use xlink:href="#16" y="19.539"/><use xlink:href="#17" y="21.71"/><use xlink:href="#18" y="23.881"/><use xlink:href="#19" y="26.052"/><use xlink:href="#13" y="32.565"/><use xlink:href="#4" y="34.736"/><use xlink:href="#15" y="36.907"/><use xlink:href="#16" y="39.078"/><use xlink:href="#20" y="41.249"/><text y="45.09" class="j">уктура</text><text x="7.014" y="45.09" class="j">проекта,</text><text x="16.032" y="45.09" class="j">конфигурационные</text><text x="33.066" y="45.09" class="j">файлы</text><text x="39.078" y="45.09" class="j">и</text><text x="41.082" y="45.09" class="j">зависимости.&apos;</text><text x="54.108" y="45.09" class="g">?</text><text x="56.112" y="45.09" class="g">[y/N/r]:</text></svg><svg x="7000"><use xlink:href="#a"/><use xlink:href="#b" x="65.996" y="43.395"/><use xlink:href="#7" y="4.342"/><use xlink:href="#12" y="6.513"/><use xlink:href="#13" y="13.026"/><use xlink:href="#9" y="15.197"/><use xlink:href="#15" y="17.368"/><use xlink:href="#16" y="19.539"/><use xlink:href="#17" y="21.71"/><use xlink:href="#18" y="23.881"/><use xlink:href="#19" y="26.052"/><use xlink:href="#13" y="32.565"/><use xlink:href="#4" y="34.736"/><use xlink:href="#15" y="36.907"/><use xlink:href="#16" y="39.078"/><use xlink:href="#20" y="41.249"/><use xlink:href="#21" y="43.42"/></svg><svg x="7100"><use xlink:href="#a"/><use xlink:href="#b" x="-.004" y="43.395"/><use xlink:href="#7" y="2.171"/><use xlink:href="#12" y="4.342"/><use xlink:href="#13" y="10.855"/><use xlink:href="#9" y="13.026"/><use xlink:href="#15" y="15.197"/><use xlink:href="#16" y="17.368"/><use xlink:href="#17" y="19.539"/><use xlink:href="#18" y="21.71"/><use xlink:href="#19" y="23.881"/><use xlink:href="#13" y="30.394"/><use xlink:href="#4" y="32.565"/><use xlink:href="#15" y="34.736"/><use xlink:href="#16" y="36.907"/><use xlink:href="#20" y="39.078"/><use xlink:href="#21" y="41.249"/></svg><svg x="7200"><use xlink:href="#a"/><use xlink:href="#b" x="67.996" y="43.395"/><use xlink:href="#7"/><use xlink:href="#12" y="2.171"/><use xlink:href="#13" y="8.684"/><use xlink:href="#9" y="10.855"/><use xlink:href="#15" y="13.026"/><use xlink:href="#16" y="15.197"/><use xlink:href="#17" y="17.368"/><use xlink:href="#18" y="19.539"/><use xlink:href="#19" y="21.71"/><use xlink:href="#13" y="28.223"/><use xlink:href="#4" y="30.394"/><use xlink:href="#15" y="32.565"/><use xlink:href="#16" y="34.736"/><use xlink:href="#20" y="36.907"/><use xlink:href="#21" y="39.078"/><use xlink:href="#22" y="41.249"/><use xlink:href="#23" y="43.42"/></svg><svg x="7300"><use xlink:href="#a"/><use xlink:href="#b" x="68.996" y="43.395"/><use xlink:href="#7"/><use xlink:href="#12" y="2.171"/><use xlink:href="#13" y="8.684"/><use xlink:href="#9" y="10.855"/><use xlink:href="#15" y="13.026"/><use xlink:href="#16" y="15.197"/><use xlink:href="#17" y="17.368"/><use xlink:href="#18" y="19.539"/><use xlink:href="#19" y="21.71"/><use xlink:href="#13" y="28.223"/><use xlink:href="#4" y="30.394"/><use xlink:href="#15" y="32.565"/><use xlink:href="#16" y="34.736"/><use xlink:href="#20" y="36.907"/><use xlink:href="#21" y="39.078"/><use xlink:href="#22" y="41.249"/><use xlink:href="#24" y="43.42"/></svg><svg x="7400"><use xlink:href="#a"/><use xlink:href="#b" x="-.004" y="43.395"/><use xlink:href="#12"/><use xlink:href="#13" y="6.513"/><use xlink:href="#9" y="8.684"/><use xlink:href="#15" y="10.855"/><use xlink:href="#16" y="13.026"/><use xlink:href="#17" y="15.197"/><use xlink:href="#18" y="17.368"/><use xlink:href="#19" y="19.539"/><use xlink:href="#13" y="26.052"/><use xlink:href="#4" y="28.223"/><use xlink:href="#15" y="30.394"/><use xlink:href="#16" y="32.565"/><use xlink:href="#20" y="34.736"/><use xlink:href="#21" y="36.907"/><use xlink:href="#22" y="39.078"/><use xlink:href="#24" y="41.249"/></svg><svg x="7500"><use xlink:href="#a"/><use xlink:href="#b" x="67.996" y="43.395"/><use xlink:href="#13" y="4.342"/><use xlink:href="#9" y="6.513"/><use xlink:href="#15" y="8.684"/><use xlink:href="#16" y="10.855"/><use xlink:href="#17" y="13.026"/><use xlink:href="#18" y="15.197"/><use xlink:href="#19" y="17.368"/><use xlink:href="#13" y="23.881"/><use xlink:href="#4" y="26.052"/><use xlink:href="#15" y="28.223"/><use xlink:href="#16" y="30.394"/><use xlink:href="#20" y="32.565"/><use xlink:href="#21" y="34.736"/><use xlink:href="#22" y="36.907"/><use xlink:href="#24" y="39.078"/><use xlink:href="#22" y="41.249"/><use xlink:href="#23" y="43.42"/></svg><svg x="7600"><use xlink:href="#a"/><use xlink:href="#b" x="68.996" y="43.395"/><use xlink:href="#13" y="4.342"/><use xlink:href="#9" y="6.513"/><use xlink:href="#15" y="8.684"/><use xlink:href="#16" y="10.855"/><use xlink:href="#17" y="13.026"/><use xlink:href="#18" y="15.197"/><use xlink:href="#19" y="17.368"/><use xlink:href="#13" y="23.881"/><use xlink:href="#4" y="26.052"/><use xlink:href="#15" y="28.223"/><use xlink:href="#16" y="30.394"/><use xlink:href="#20" y="32.565"/><use xlink:href="#21" y="34.736"/><use xlink:href="#22" y="36.907"/><use xlink:href="#24" y="39.078"/><use xlink:href="#22" y="41.249"/><use xlink:href="#25" y="43.42"/></svg><svg x="7700"><use xlink:href="#a"/><use xlink:href="#b" x="-.004" y="43.395"/><use xlink:href="#13" y="2.171"/><use xlink:href="#9" y="4.342"/><use xlink:href="#15" y="6.513"/><use xlink:href="#16" y="8.684"/><use xlink:href="#17" y="10.855"/><use xlink:href="#18" y="13.026"/><use xlink:href="#19" y="15.197"/><use xlink:href="#13" y="21.71"/><use xlink:href="#4" y="23.881"/><use xlink:href="#15" y="26.052"/><use xlink:href="#16" y="28.223"/><use xlink:href="#20" y="30.394"/><use xlink:href="#21" y="32.565"/><use xlink:href="#22" y="34.736"/><use xlink:href="#24" y="36.907"/><use xlink:href="#22" y="39.078"/><use xlink:href="#25" y="41.249"/></svg><svg x="7800"><use xlink:href="#a"/><use xlink:href="#b" x="-.004" y="43.395"/><use xlink:href="#9"/><use xlink:href="#15" y="2.171"/><use xlink:href="#16" y="4.342"/><use xlink:href="#17" y="6.513"/><use xlink:href="#18" y="8.684"/><use xlink:href="#19" y="10.855"/><use xlink:href="#13" y="17.368"/><use xlink:href="#4" y="19.539"/><use xlink:href="#15" y="21.71"/><use xlink:href="#16" y="23.881"/><use xlink:href="#20" y="26.052"/><use xlink:href="#21" y="28.223"/><use xlink:href="#22" y="30.394"/><use xlink:href="#24" y="32.565"/><use xlink:href="#22" y="34.736"/><use xlink:href="#25" y="36.907"/><use xlink:href="#26" y="39.078"/><use xlink:href="#27" y="41.249"/></svg><svg x="7900"><use xlink:href="#a"/><use xlink:href="#b" x="-.004" y="43.395"/><use xlink:href="#13"/><use xlink:href="#4" y="2.171"/><use xlink:href="#15" y="4.342"/><use xlink:href="#16" y="6.513"/><use xlink:href="#20" y="8.684"/><use xlink:href="#21" y="10.855"/><use xlink:href="#22" y="13.026"/><use xlink:href="#24" y="15.197"/><use xlink:href="#22" y="17.368"/><use xlink:href="#25" y="19.539"/><use xlink:href="#26" y="21.71"/><use xlink:href="#27" y="23.881"/><use xlink:href="#28" y="26.052"/><use xlink:href="#29" y="28.223"/><use xlink:href="#30" y="30.394"/><use xlink:href="#31" y="32.565"/><use xlink:href="#32" y="34.736"/><use xlink:href="#33" y="36.907"/><use xlink:href="#34" y="39.078"/><use xlink:href="#35" y="41.249"/></svg><svg x="8000"><use xlink:href="#a"/><use xlink:href="#b" x="-.004" y="43.395"/><use xlink:href="#4"/><use xlink:href="#15" y="2.171"/><use xlink:href="#16" y="4.342"/><use xlink:href="#20" y="6.513"/><use xlink:href="#21" y="8.684"/><use xlink:href="#22" y="10.855"/><use xlink:href="#24" y="13.026"/><use xlink:href="#22" y="15.197"/><use xlink:href="#25" y="17.368"/><use xlink:href="#26" y="19.539"/><use xlink:href="#27" y="21.71"/><use xlink:href="#28" y="23.881"/><use xlink:href="#29" y="26.052"/><use xlink:href="#30" y="28.223"/><use xlink:href="#31" y="30.394"/><use xlink:href="#32" y="32.565"/><use xlink:href="#33" y="34.736"/><use xlink:href="#34" y="36.907"/><use xlink:href="#35" y="39.078"/><use xlink:href="#36" y="41.249"/></svg><svg x="8100"><use xlink:href="#a"/><use xlink:href="#b" x="-.004" y="43.395"/><use xlink:href="#15"/><use xlink:href="#16" y="2.171"/><use xlink:href="#20" y="4.342"/><use xlink:href="#21" y="6.513"/><use xlink:href="#22" y="8.684"/><use xlink:href="#24" y="10.855"/><use xlink:href="#22" y="13.026"/><use xlink:href="#25" y="15.197"/><use xlink:href="#26" y="17.368"/><use xlink:href="#27" y="19.539"/><use xlink:href="#28" y="21.71"/><use xlink:href="#29" y="23.881"/><use xlink:href="#30" y="26.052"/><use xlink:href="#31" y="28.223"/><use xlink:href="#32" y="30.394"/><use xlink:href="#33" y="32.565"/><use xlink:href="#34" y="34.736"/><use xlink:href="#35" y="36.907"/><use xlink:href="#36" y="39.078"/></svg></svg></g></g></svg></svg>