<svg xmlns="http://www.w3.org/2000/svg" xmlns:xlink="http://www.w3.org/1999/xlink" width="1060" height="514.2"><rect width="1060" height="514.2" rx="5" ry="5" class="a"/><svg y="0%" x="0%"><circle cx="20" cy="20" r="6" fill="#ff5f58"/><circle cx="40" cy="20" r="6" fill="#ffbd2e"/><circle cx="60" cy="20" r="6" fill="#18c132"/></svg><svg height="434.2" viewBox="0 0 100 43.42" width="1000" x="25" xmlns="http://www.w3.org/2000/svg" xmlns:xlink="http://www.w3.org/1999/xlink" y="60"><style>@keyframes p{0%{transform:translateX(0)}12.96%{transform:translateX(-100px)}13.56%{transform:translateX(-300px)}14.74%{transform:translateX(-400px)}17.03%{transform:translateX(-600px)}20.76%{transform:translateX(-700px)}20.77%{transform:translateX(-800px)}20.78%{transform:translateX(-900px)}21.7%{transform:translateX(-1000px)}44.75%{transform:translateX(-1100px)}62.57%{transform:translateX(-1200px)}67.23%{transform:translateX(-1300px)}72.13%{transform:translateX(-1400px)}86.61%{transform:translateX(-1500px)}88.45%{transform:translateX(-1600px)}88.49%{transform:translateX(-1900px)}88.61%{transform:translateX(-2000px)}88.67%{transform:translateX(-2100px)}98.96%{transform:translateX(-2300px)}99.98%{transform:translateX(-2500px)}99.99%{transform:translateX(-2600px)}to{transform:translateX(-2900px)}}.a{fill:#282d35}.f,.g{fill:#d290e4;white-space:pre}.g{fill:#6f7783}.h,.i,.j,.k,.l,.m{fill:#dbab79;white-space:pre}.i,.j,.k,.l,.m{fill:#a8cc8c}.j,.k,.l,.m{fill:#71bef2}.k,.l,.m{fill:#66c2cd}.l,.m{fill:#e88388}.m{fill:#b9c0cb}</style><g font-family="Monaco,Consolas,Menlo,'Bitstream Vera Sans Mono','Powerline Symbols',monospace" font-size="1.67"><defs><symbol id="1"><text y="1.67" class="f">project</text><text x="8.016" y="1.67" class="g"></text><text x="10.02" y="1.67" class="g">master</text><text x="17.034" y="1.67" class="h">~1</text><text x="20.04" y="1.67" class="i">+7</text></symbol><symbol id="2"><text x="1.002" y="1.67" class="f">❯</text></symbol><symbol id="3"><text x="1.002" y="1.67" class="f">❯</text><text x="3.006" y="1.67" class="j">c</text></symbol><symbol id="4"><text x="1.002" y="1.67" class="f">❯</text><text x="3.006" y="1.67" class="j">commit_maker</text><text x="16.032" y="1.67" class="k">-m</text><text x="19.038" y="1.67" class="k">500</text></symbol><symbol id="5"><text y="1.67" class="l">Обратите</text><text x="9.018" y="1.67" class="l">внимание</text><text x="18.036" y="1.67" class="l">на</text><text x="21.042" y="1.67" class="l">то,</text><text x="25.05" y="1.67" class="l">что</text><text x="29.058" y="1.67" class="l">у</text><text x="31.062" y="1.67" class="l">Вас</text><text x="35.07" y="1.67" class="l">есть</text><text x="40.08" y="1.67" class="l">незастейдженные</text><text x="56.112" y="1.67" class="l">изменения!</text><text x="67.134" y="1.67" class="m">Для</text><text x="71.142" y="1.67" class="m">добавления</text><text x="82.164" y="1.67" class="m">дополнительных</text><text x="97.194" y="1.67" class="m">фай</text></symbol><symbol id="6"><text y="1.67" class="m">лов</text><text x="4.008" y="1.67" class="h">Ctrl</text><text x="9.018" y="1.67" class="h">+</text><text x="11.022" y="1.67" class="h">C</text><text x="13.026" y="1.67" class="m">и</text><text x="15.03" y="1.67" class="m">выполните</text><text x="25.05" y="1.67" class="h">&apos;git</text><text x="30.06" y="1.67" class="h">add</text><text x="34.068" y="1.67" class="h">&lt;filename&gt;&apos;</text><text x="45.09" y="1.67" class="m">.</text></symbol><symbol id="7"><text y="1.67" class="m">Закоммитить</text><text x="12.024" y="1.67" class="m">с</text><text x="14.028" y="1.67" class="m">сообщением</text><text x="25.05" y="1.67" class="h">&apos;Добавлены</text><text x="36.072" y="1.67" class="h">начальные</text><text x="46.092" y="1.67" class="h">файлы</text><text x="52.104" y="1.67" class="h">проекта:</text><text x="61.122" y="1.67" class="h">README.md,</text><text x="72.144" y="1.67" class="h">commit_maker.cast,</text><text x="91.182" y="1.67" class="h">проектная</text></symbol><symbol id="8"><text x="1.002" y="1.67" class="h">структура</text><text x="11.022" y="1.67" class="h">с</text><text x="13.026" y="1.67" class="h">модулями</text><text x="22.044" y="1.67" class="h">Flask,</text><text x="29.058" y="1.67" class="h">конфигурацией</text><text x="43.086" y="1.67" class="h">и</text><text x="45.09" y="1.67" class="h">запуском</text><text x="54.108" y="1.67" class="h">приложения.&apos;</text><text x="66.132" y="1.67" class="m">?</text><text x="68.136" y="1.67" class="m">[y/N/r]:</text><text x="77.154" y="1.67" class="m">r</text></symbol><symbol id="9"><text y="1.67" class="m">Закоммитить</text><text x="12.024" y="1.67" class="m">с</text><text x="14.028" y="1.67" class="m">сообщением</text><text x="25.05" y="1.67" class="h">&apos;Добавлены</text><text x="36.072" y="1.67" class="h">начальные</text><text x="46.092" y="1.67" class="h">файлы</text><text x="52.104" y="1.67" class="h">проекта</text><text x="60.12" y="1.67" class="h">на</text><text x="63.126" y="1.67" class="h">Flask:</text><text x="70.14" y="1.67" class="h">README.md,</text><text x="81.162" y="1.67" class="h">commit_maker.cast,</text></symbol><symbol id="10"><text y="1.67" class="h">проектная</text><text x="10.02" y="1.67" class="h">структура,</text><text x="21.042" y="1.67" class="h">requirements.txt</text><text x="38.076" y="1.67" class="h">и</text><text x="40.08" y="1.67" class="h">run.py&apos;</text><text x="47.094" y="1.67" class="m">?</text><text x="49.098" y="1.67" class="m">[y/N/r]:</text><text x="58.116" y="1.67" class="m">y</text></symbol><symbol id="11"><text y="1.67" class="m">[master</text><text x="8.016" y="1.67" class="m">(корневой</text><text x="18.036" y="1.67" class="m">коммит)</text><text x="26.052" y="1.67" class="m">6c20f6d]</text><text x="35.07" y="1.67" class="m">Добавлены</text><text x="45.09" y="1.67" class="m">начальные</text><text x="55.11" y="1.67" class="m">файлы</text><text x="61.122" y="1.67" class="m">проекта</text><text x="69.138" y="1.67" class="m">на</text><text x="72.144" y="1.67" class="m">Flask:</text><text x="79.158" y="1.67" class="m">README.md,</text><text x="90.18" y="1.67" class="m">commit_mak</text></symbol><symbol id="12"><text y="1.67" class="m">er.cast,</text><text x="9.018" y="1.67" class="m">проектная</text><text x="19.038" y="1.67" class="m">структура,</text><text x="30.06" y="1.67" class="m">requirements.txt</text><text x="47.094" y="1.67" class="m">и</text><text x="49.098" y="1.67" class="m">run.py</text></symbol><symbol id="13"><text x="1.002" y="1.67" class="m">7</text><text x="3.006" y="1.67" class="m">files</text><text x="9.018" y="1.67" class="m">changed,</text><text x="18.036" y="1.67" class="m">155</text><text x="22.044" y="1.67" class="m">insertions(+)</text></symbol><symbol id="14"><text x="1.002" y="1.67" class="m">create</text><text x="8.016" y="1.67" class="m">mode</text><text x="13.026" y="1.67" class="m">100644</text><text x="20.04" y="1.67" class="m">README.md</text></symbol><symbol id="15"><text x="1.002" y="1.67" class="m">create</text><text x="8.016" y="1.67" class="m">mode</text><text x="13.026" y="1.67" class="m">100644</text><text x="20.04" y="1.67" class="m">commit_maker.cast</text></symbol><symbol id="16"><text x="1.002" y="1.67" class="m">create</text><text x="8.016" y="1.67" class="m">mode</text><text x="13.026" y="1.67" class="m">100644</text><text x="20.04" y="1.67" class="m">project/Kairos/routes.py</text></symbol><symbol id="17"><text x="1.002" y="1.67" class="m">create</text><text x="8.016" y="1.67" class="m">mode</text><text x="13.026" y="1.67" class="m">100644</text><text x="20.04" y="1.67" class="m">project/__init__.py</text></symbol><symbol id="18"><text x="1.002" y="1.67" class="m">create</text><text x="8.016" y="1.67" class="m">mode</text><text x="13.026" y="1.67" class="m">100644</text><text x="20.04" y="1.67" class="m">project/config.py</text></symbol><symbol id="19"><text x="1.002" y="1.67" class="m">create</text><text x="8.016" y="1.67" class="m">mode</text><text x="13.026" y="1.67" class="m">100644</text><text x="20.04" y="1.67" class="m">requirements.txt</text></symbol><symbol id="20"><text x="1.002" y="1.67" class="m">create</text><text x="8.016" y="1.67" class="m">mode</text><text x="13.026" y="1.67" class="m">100644</text><text x="20.04" y="1.67" class="m">run.py</text></symbol><symbol id="21"><text y="1.67" class="i">Коммит</text><text x="7.014" y="1.67" class="i">успешно</text><text x="15.03" y="1.67" class="i">создан!</text></symbol><symbol id="22"><text y="1.67" class="f">project</text><text x="8.016" y="1.67" class="g"></text><text x="10.02" y="1.67" class="g">master</text><text x="17.034" y="1.67" class="h">~1</text></symbol><symbol id="a"><path fill="transparent" d="M0 0h100v21H0z"/></symbol><symbol id="b"><path fill="#6f7683" d="M0 0h1.102v2.171H0z"/></symbol></defs><path class="a" d="M0 0h100v43.42H0z"/><g style="animation-duration:20.189526s;animation-iteration-count:infinite;animation-name:p;animation-timing-function:steps(1,end)"><svg width="3000"><svg><use xlink:href="#a"/><use xlink:href="#b" x="2.996" y="6.488"/><use xlink:href="#1" y="4.342"/><use xlink:href="#2" y="6.513"/></svg><svg x="100"><use xlink:href="#a"/><use xlink:href="#b" x="3.996" y="6.488"/><use xlink:href="#1" y="4.342"/><use xlink:href="#3" y="6.513"/></svg><svg x="200"><use xlink:href="#a"/><use xlink:href="#b" x="4.996" y="6.488"/><use xlink:href="#1" y="4.342"/><text x="1.002" y="8.183" class="f">❯</text><text x="3.006" y="8.183" class="j">co</text><text x="5.01" y="8.183" class="g">mmit_maker</text><text x="16.032" y="8.183" class="g">-m</text><text x="19.038" y="8.183" class="g">500</text></svg><svg x="300"><use xlink:href="#a"/><use xlink:href="#b" x="4.996" y="6.488"/><use xlink:href="#1" y="4.342"/><text x="1.002" y="8.183" class="f">❯</text><text x="3.006" y="8.183" class="l">co</text><text x="5.01" y="8.183" class="g">mmit_maker</text><text x="16.032" y="8.183" class="g">-m</text><text x="19.038" y="8.183" class="g">500</text></svg><svg x="400"><use xlink:href="#a"/><use xlink:href="#b" x="5.996" y="6.488"/><use xlink:href="#1" y="4.342"/><text x="1.002" y="8.183" class="f">❯</text><text x="3.006" y="8.183" class="l">com</text><text x="6.012" y="8.183" class="g">mit_maker</text><text x="16.032" y="8.183" class="g">-m</text><text x="19.038" y="8.183" class="g">500</text></svg><svg x="500"><use xlink:href="#a"/><use xlink:href="#b" x="21.996" y="6.488"/><use xlink:href="#1" y="4.342"/><text x="1.002" y="8.183" class="f">❯</text><text x="3.006" y="8.183" class="m">commit_maker</text><text x="16.032" y="8.183" class="m">-m</text><text x="19.038" y="8.183" class="m">500</text></svg><svg x="600"><use xlink:href="#a"/><use xlink:href="#b" x="21.996" y="6.488"/><use xlink:href="#1" y="4.342"/><use xlink:href="#4" y="6.513"/></svg><svg x="700"><use xlink:href="#a"/><use xlink:href="#b" x="-.004" y="8.659"/><use xlink:href="#1" y="4.342"/><use xlink:href="#4" y="6.513"/></svg><svg x="800"><use xlink:href="#a"/><use xlink:href="#b" x="-.004" y="8.659"/><use xlink:href="#1" y="4.342"/><use xlink:href="#4" y="6.513"/></svg><svg x="900"><use xlink:href="#a"/><use xlink:href="#b" x="-.004" y="8.659"/><use xlink:href="#1" y="4.342"/><use xlink:href="#4" y="6.513"/></svg><svg x="1000"><use xlink:href="#a"/><use xlink:href="#b" x="-.004" y="13.001"/><use xlink:href="#1" y="4.342"/><use xlink:href="#4" y="6.513"/><use xlink:href="#5" y="8.684"/><use xlink:href="#6" y="10.855"/></svg><svg x="1100"><use xlink:href="#a"/><use xlink:href="#b" x="76.996" y="15.172"/><use xlink:href="#1" y="4.342"/><use xlink:href="#4" y="6.513"/><use xlink:href="#5" y="8.684"/><use xlink:href="#6" y="10.855"/><use xlink:href="#7" y="13.026"/><text x="1.002" y="16.867" class="h">структура</text><text x="11.022" y="16.867" class="h">с</text><text x="13.026" y="16.867" class="h">модулями</text><text x="22.044" y="16.867" class="h">Flask,</text><text x="29.058" y="16.867" class="h">конфигурацией</text><text x="43.086" y="16.867" class="h">и</text><text x="45.09" y="16.867" class="h">запуском</text><text x="54.108" y="16.867" class="h">приложения.&apos;</text><text x="66.132" y="16.867" class="m">?</text><text x="68.136" y="16.867" class="m">[y/N/r]:</text></svg><svg x="1200"><use xlink:href="#a"/><use xlink:href="#b" x="77.996" y="15.172"/><use xlink:href="#1" y="4.342"/><use xlink:href="#4" y="6.513"/><use xlink:href="#5" y="8.684"/><use xlink:href="#6" y="10.855"/><use xlink:href="#7" y="13.026"/><use xlink:href="#8" y="15.197"/></svg><svg x="1300"><use xlink:href="#a"/><use xlink:href="#b" x="-.004" y="17.343"/><use xlink:href="#1" y="4.342"/><use xlink:href="#4" y="6.513"/><use xlink:href="#5" y="8.684"/><use xlink:href="#6" y="10.855"/><use xlink:href="#7" y="13.026"/><use xlink:href="#8" y="15.197"/></svg><svg x="1400"><use xlink:href="#a"/><use xlink:href="#b" x="57.996" y="19.514"/><use xlink:href="#1" y="4.342"/><use xlink:href="#4" y="6.513"/><use xlink:href="#5" y="8.684"/><use xlink:href="#6" y="10.855"/><use xlink:href="#7" y="13.026"/><use xlink:href="#8" y="15.197"/><use xlink:href="#9" y="17.368"/><text y="21.209" class="h">проектная</text><text x="10.02" y="21.209" class="h">структура,</text><text x="21.042" y="21.209" class="h">requirements.txt</text><text x="38.076" y="21.209" class="h">и</text><text x="40.08" y="21.209" class="h">run.py&apos;</text><text x="47.094" y="21.209" class="m">?</text><text x="49.098" y="21.209" class="m">[y/N/r]:</text></svg><svg x="1500"><use xlink:href="#a"/><use xlink:href="#b" x="58.996" y="19.514"/><use xlink:href="#1" y="4.342"/><use xlink:href="#4" y="6.513"/><use xlink:href="#5" y="8.684"/><use xlink:href="#6" y="10.855"/><use xlink:href="#7" y="13.026"/><use xlink:href="#8" y="15.197"/><use xlink:href="#9" y="17.368"/><use xlink:href="#10" y="19.539"/></svg><svg x="1600"><use xlink:href="#a"/><use xlink:href="#b" x="-.004" y="21.685"/><use xlink:href="#1" y="4.342"/><use xlink:href="#4" y="6.513"/><use xlink:href="#5" y="8.684"/><use xlink:href="#6" y="10.855"/><use xlink:href="#7" y="13.026"/><use xlink:href="#8" y="15.197"/><use xlink:href="#9" y="17.368"/><use xlink:href="#10" y="19.539"/></svg><svg x="1700"><use xlink:href="#a"/><use xlink:href="#b" x="-.004" y="26.027"/><use xlink:href="#1" y="4.342"/><use xlink:href="#4" y="6.513"/><use xlink:href="#5" y="8.684"/><use xlink:href="#6" y="10.855"/><use xlink:href="#7" y="13.026"/><use xlink:href="#8" y="15.197"/><use xlink:href="#9" y="17.368"/><use xlink:href="#10" y="19.539"/><use xlink:href="#11" y="21.71"/><use xlink:href="#12" y="23.881"/></svg><svg x="1800"><use xlink:href="#a"/><use xlink:href="#b" x="-.004" y="43.395"/><use xlink:href="#1" y="4.342"/><use xlink:href="#4" y="6.513"/><use xlink:href="#5" y="8.684"/><use xlink:href="#6" y="10.855"/><use xlink:href="#7" y="13.026"/><use xlink:href="#8" y="15.197"/><use xlink:href="#9" y="17.368"/><use xlink:href="#10" y="19.539"/><use xlink:href="#11" y="21.71"/><use xlink:href="#12" y="23.881"/><use xlink:href="#13" y="26.052"/><use xlink:href="#14" y="28.223"/><use xlink:href="#15" y="30.394"/><use xlink:href="#16" y="32.565"/><use xlink:href="#17" y="34.736"/><use xlink:href="#18" y="36.907"/><use xlink:href="#19" y="39.078"/><use xlink:href="#20" y="41.249"/></svg><svg x="1900"><use xlink:href="#a"/><use xlink:href="#b" x="-.004" y="43.395"/><use xlink:href="#1" y="2.171"/><use xlink:href="#4" y="4.342"/><use xlink:href="#5" y="6.513"/><use xlink:href="#6" y="8.684"/><use xlink:href="#7" y="10.855"/><use xlink:href="#8" y="13.026"/><use xlink:href="#9" y="15.197"/><use xlink:href="#10" y="17.368"/><use xlink:href="#11" y="19.539"/><use xlink:href="#12" y="21.71"/><use xlink:href="#13" y="23.881"/><use xlink:href="#14" y="26.052"/><use xlink:href="#15" y="28.223"/><use xlink:href="#16" y="30.394"/><use xlink:href="#17" y="32.565"/><use xlink:href="#18" y="34.736"/><use xlink:href="#19" y="36.907"/><use xlink:href="#20" y="39.078"/><use xlink:href="#21" y="41.249"/></svg><svg x="2000"><use xlink:href="#a"/><use xlink:href="#b" x="-.004" y="43.395"/><use xlink:href="#1"/><use xlink:href="#4" y="2.171"/><use xlink:href="#5" y="4.342"/><use xlink:href="#6" y="6.513"/><use xlink:href="#7" y="8.684"/><use xlink:href="#8" y="10.855"/><use xlink:href="#9" y="13.026"/><use xlink:href="#10" y="15.197"/><use xlink:href="#11" y="17.368"/><use xlink:href="#12" y="19.539"/><use xlink:href="#13" y="21.71"/><use xlink:href="#14" y="23.881"/><use xlink:href="#15" y="26.052"/><use xlink:href="#16" y="28.223"/><use xlink:href="#17" y="30.394"/><use xlink:href="#18" y="32.565"/><use xlink:href="#19" y="34.736"/><use xlink:href="#20" y="36.907"/><use xlink:href="#21" y="39.078"/></svg><svg x="2100"><use xlink:href="#a"/><use xlink:href="#b" x="2.996" y="43.395"/><use xlink:href="#5"/><use xlink:href="#6" y="2.171"/><use xlink:href="#7" y="4.342"/><use xlink:href="#8" y="6.513"/><use xlink:href="#9" y="8.684"/><use xlink:href="#10" y="10.855"/><use xlink:href="#11" y="13.026"/><use xlink:href="#12" y="15.197"/><use xlink:href="#13" y="17.368"/><use xlink:href="#14" y="19.539"/><use xlink:href="#15" y="21.71"/><use xlink:href="#16" y="23.881"/><use xlink:href="#17" y="26.052"/><use xlink:href="#18" y="28.223"/><use xlink:href="#19" y="30.394"/><use xlink:href="#20" y="32.565"/><use xlink:href="#21" y="34.736"/><use xlink:href="#22" y="41.249"/><use xlink:href="#2" y="43.42"/></svg><svg x="2200"><use xlink:href="#a"/><use xlink:href="#b" x="3.996" y="43.395"/><use xlink:href="#5"/><use xlink:href="#6" y="2.171"/><use xlink:href="#7" y="4.342"/><use xlink:href="#8" y="6.513"/><use xlink:href="#9" y="8.684"/><use xlink:href="#10" y="10.855"/><use xlink:href="#11" y="13.026"/><use xlink:href="#12" y="15.197"/><use xlink:href="#13" y="17.368"/><use xlink:href="#14" y="19.539"/><use xlink:href="#15" y="21.71"/><use xlink:href="#16" y="23.881"/><use xlink:href="#17" y="26.052"/><use xlink:href="#18" y="28.223"/><use xlink:href="#19" y="30.394"/><use xlink:href="#20" y="32.565"/><use xlink:href="#21" y="34.736"/><use xlink:href="#22" y="41.249"/><use xlink:href="#3" y="43.42"/></svg><svg x="2300"><use xlink:href="#a"/><use xlink:href="#b" x="3.996" y="43.395"/><use xlink:href="#5"/><use xlink:href="#6" y="2.171"/><use xlink:href="#7" y="4.342"/><use xlink:href="#8" y="6.513"/><use xlink:href="#9" y="8.684"/><use xlink:href="#10" y="10.855"/><use xlink:href="#11" y="13.026"/><use xlink:href="#12" y="15.197"/><use xlink:href="#13" y="17.368"/><use xlink:href="#14" y="19.539"/><use xlink:href="#15" y="21.71"/><use xlink:href="#16" y="23.881"/><use xlink:href="#17" y="26.052"/><use xlink:href="#18" y="28.223"/><use xlink:href="#19" y="30.394"/><use xlink:href="#20" y="32.565"/><use xlink:href="#21" y="34.736"/><use xlink:href="#22" y="41.249"/><text x="1.002" y="45.09" class="f">❯</text><text x="3.006" y="45.09" class="j">c</text><text x="4.008" y="45.09" class="g">ommit_maker</text><text x="16.032" y="45.09" class="g">-m</text><text x="19.038" y="45.09" class="g">500</text></svg><svg x="2400"><use xlink:href="#a"/><use xlink:href="#b" x="-.004" y="43.395"/><use xlink:href="#6"/><use xlink:href="#7" y="2.171"/><use xlink:href="#8" y="4.342"/><use xlink:href="#9" y="6.513"/><use xlink:href="#10" y="8.684"/><use xlink:href="#11" y="10.855"/><use xlink:href="#12" y="13.026"/><use xlink:href="#13" y="15.197"/><use xlink:href="#14" y="17.368"/><use xlink:href="#15" y="19.539"/><use xlink:href="#16" y="21.71"/><use xlink:href="#17" y="23.881"/><use xlink:href="#18" y="26.052"/><use xlink:href="#19" y="28.223"/><use xlink:href="#20" y="30.394"/><use xlink:href="#21" y="32.565"/><use xlink:href="#22" y="39.078"/><use xlink:href="#3" y="41.249"/></svg><svg x="2500"><use xlink:href="#a"/><use xlink:href="#b" x="-.004" y="43.395"/><use xlink:href="#6"/><use xlink:href="#7" y="2.171"/><use xlink:href="#8" y="4.342"/><use xlink:href="#9" y="6.513"/><use xlink:href="#10" y="8.684"/><use xlink:href="#11" y="10.855"/><use xlink:href="#12" y="13.026"/><use xlink:href="#13" y="15.197"/><use xlink:href="#14" y="17.368"/><use xlink:href="#15" y="19.539"/><use xlink:href="#16" y="21.71"/><use xlink:href="#17" y="23.881"/><use xlink:href="#18" y="26.052"/><use xlink:href="#19" y="28.223"/><use xlink:href="#20" y="30.394"/><use xlink:href="#21" y="32.565"/><use xlink:href="#22" y="39.078"/><use xlink:href="#3" y="41.249"/></svg><svg x="2600"><use xlink:href="#a"/><use xlink:href="#b" x="-.004" y="43.395"/><use xlink:href="#6"/><use xlink:href="#7" y="2.171"/><use xlink:href="#8" y="4.342"/><use xlink:href="#9" y="6.513"/><use xlink:href="#10" y="8.684"/><use xlink:href="#11" y="10.855"/><use xlink:href="#12" y="13.026"/><use xlink:href="#13" y="15.197"/><use xlink:href="#14" y="17.368"/><use xlink:href="#15" y="19.539"/><use xlink:href="#16" y="21.71"/><use xlink:href="#17" y="23.881"/><use xlink:href="#18" y="26.052"/><use xlink:href="#19" y="28.223"/><use xlink:href="#20" y="30.394"/><use xlink:href="#21" y="32.565"/><use xlink:href="#22" y="39.078"/><use xlink:href="#3" y="41.249"/></svg><svg x="2700"><use xlink:href="#a"/><use xlink:href="#b" x="-.004"/></svg><svg x="2800"><use xlink:href="#a"/><use xlink:href="#b" x="-.004" y="2.146"/></svg><svg x="2900"><use xlink:href="#a"/><use xlink:href="#b" x="-.004" y="2.146"/></svg></svg></g></g></svg></svg>