<svg xmlns="http://www.w3.org/2000/svg" xmlns:xlink="http://www.w3.org/1999/xlink" width="1060" height="514.2"><rect width="1060" height="514.2" rx="5" ry="5" class="a"/><svg y="0%" x="0%"><circle cx="20" cy="20" r="6" fill="#ff5f58"/><circle cx="40" cy="20" r="6" fill="#ffbd2e"/><circle cx="60" cy="20" r="6" fill="#18c132"/></svg><svg height="434.2" viewBox="0 0 100 43.42" width="1000" x="25" xmlns="http://www.w3.org/2000/svg" xmlns:xlink="http://www.w3.org/1999/xlink" y="60"><style>@keyframes q{0%{transform:translateX(-100px)}.04%{transform:translateX(-300px)}3.63%{transform:translateX(-500px)}3.64%{transform:translateX(-600px)}9.75%{transform:translateX(-800px)}9.76%{transform:translateX(-900px)}10.43%{transform:translateX(-1000px)}16.7%{transform:translateX(-1100px)}19.99%{transform:translateX(-1200px)}20.02%{transform:translateX(-1300px)}28.05%{transform:translateX(-1400px)}28.2%{transform:translateX(-1500px)}28.24%{transform:translateX(-1600px)}33.37%{transform:translateX(-1800px)}38.1%{transform:translateX(-2100px)}38.74%{transform:translateX(-2200px)}47.91%{transform:translateX(-2300px)}50.48%{transform:translateX(-2400px)}50.55%{transform:translateX(-2500px)}50.85%{transform:translateX(-2600px)}51.14%{transform:translateX(-2700px)}51.44%{transform:translateX(-2800px)}51.73%{transform:translateX(-2900px)}52.03%{transform:translateX(-3000px)}52.33%{transform:translateX(-3100px)}52.62%{transform:translateX(-3200px)}52.92%{transform:translateX(-3300px)}53.21%{transform:translateX(-3400px)}53.51%{transform:translateX(-3500px)}53.81%{transform:translateX(-3600px)}53.96%{transform:translateX(-3800px)}70.36%{transform:translateX(-3900px)}73.9%{transform:translateX(-4100px)}74.2%{transform:translateX(-4200px)}74.5%{transform:translateX(-4300px)}74.79%{transform:translateX(-4400px)}75.09%{transform:translateX(-4500px)}75.38%{transform:translateX(-4600px)}75.68%{transform:translateX(-4700px)}75.98%{transform:translateX(-4800px)}76.27%{transform:translateX(-4900px)}76.45%{transform:translateX(-5000px)}85.63%{transform:translateX(-5100px)}88.34%{transform:translateX(-5200px)}88.38%{transform:translateX(-5500px)}88.53%{transform:translateX(-5600px)}88.56%{transform:translateX(-5700px)}98.62%{transform:translateX(-5900px)}99.98%{transform:translateX(-6100px)}99.99%{transform:translateX(-6200px)}to{transform:translateX(-6500px)}}.a{fill:#282d35}.f,.g,.h,.i{fill:#d290e4;white-space:pre}.g,.h,.i{fill:#b9c0cb}.h,.i{fill:#71bef2}.i{fill:#66c2cd}.j{fill:#e88388;font-weight:700}.j,.k,.l{white-space:pre}.k{fill:#dbab79;font-weight:700}.l{fill:#6f7783}.m{fill:#d290e4;font-weight:700}.m,.n,.s{white-space:pre}.n{fill:#a8cc8c;font-weight:700}.s{fill:#e88388}</style><g font-family="Monaco,Consolas,Menlo,'Bitstream Vera Sans Mono','Powerline Symbols',monospace" font-size="1.67"><defs><symbol id="1"><text y="1.67" class="f">~/projects/project</text></symbol><symbol id="2"><text x="1.002" y="1.67" class="f">❯</text><text x="3.006" y="1.67" class="g">commit_maker</text><text x="16.032" y="1.67" class="g">-m</text><text x="19.038" y="1.67" class="g">100</text></symbol><symbol id="3"><text x="1.002" y="1.67" class="f">❯</text><text x="3.006" y="1.67" class="h">commit_maker</text><text x="16.032" y="1.67" class="i">-m</text><text x="19.038" y="1.67" class="i">100</text></symbol><symbol id="4"><text y="1.67" class="j">Не</text><text x="3.006" y="1.67" class="j">инициализирован</text><text x="19.038" y="1.67" class="j">git</text><text x="23.046" y="1.67" class="j">репозиторий!</text><text x="36.072" y="1.67" class="g">Выполнить</text><text x="46.092" y="1.67" class="k">git</text><text x="50.1" y="1.67" class="k">init</text><text x="54.108" y="1.67" class="g">?</text><text x="56.112" y="1.67" class="g">[y/N]:</text><text x="63.126" y="1.67" class="g">y</text></symbol><symbol id="5"><text y="1.67" class="g">Сделать</text><text x="8.016" y="1.67" class="g">первый</text><text x="15.03" y="1.67" class="g">коммит</text><text x="22.044" y="1.67" class="g">с</text><text x="24.048" y="1.67" class="g">сообщением</text><text x="35.07" y="1.67" class="k">&apos;Initial</text><text x="44.088" y="1.67" class="k">commit?&apos;</text><text x="53.106" y="1.67" class="g">[y/N]:</text></symbol><symbol id="6"><text y="1.67" class="f">project</text><text x="8.016" y="1.67" class="l">master?</text></symbol><symbol id="7"><text x="1.002" y="1.67" class="f">❯</text></symbol><symbol id="8"><text y="1.67" class="j">Нет</text><text x="4.008" y="1.67" class="j">застейдженных</text><text x="18.036" y="1.67" class="j">изменений!</text><text x="29.058" y="1.67" class="g">Добавить</text><text x="38.076" y="1.67" class="g">всё</text><text x="42.084" y="1.67" class="g">автоматически</text><text x="56.112" y="1.67" class="g">с</text><text x="58.116" y="1.67" class="g">помощью</text><text x="66.132" y="1.67" class="k">git</text><text x="70.14" y="1.67" class="k">add</text><text x="74.148" y="1.67" class="k">-A</text><text x="76.152" y="1.67" class="g">?</text><text x="78.156" y="1.67" class="g">[y/N]:</text><text x="85.17" y="1.67" class="g">y</text></symbol><symbol id="9"><text y="1.67" class="f">⠋</text><text x="2.004" y="1.67" class="m">Создание</text><text x="11.022" y="1.67" class="m">сообщения</text><text x="21.042" y="1.67" class="m">коммита...</text></symbol><symbol id="10"><text y="1.67" class="f">⠙</text><text x="2.004" y="1.67" class="m">Создание</text><text x="11.022" y="1.67" class="m">сообщения</text><text x="21.042" y="1.67" class="m">коммита...</text></symbol><symbol id="11"><text y="1.67" class="f">⠹</text><text x="2.004" y="1.67" class="m">Создание</text><text x="11.022" y="1.67" class="m">сообщения</text><text x="21.042" y="1.67" class="m">коммита...</text></symbol><symbol id="12"><text y="1.67" class="f">⠸</text><text x="2.004" y="1.67" class="m">Создание</text><text x="11.022" y="1.67" class="m">сообщения</text><text x="21.042" y="1.67" class="m">коммита...</text></symbol><symbol id="13"><text y="1.67" class="f">⠼</text><text x="2.004" y="1.67" class="m">Создание</text><text x="11.022" y="1.67" class="m">сообщения</text><text x="21.042" y="1.67" class="m">коммита...</text></symbol><symbol id="14"><text y="1.67" class="f">⠴</text><text x="2.004" y="1.67" class="m">Создание</text><text x="11.022" y="1.67" class="m">сообщения</text><text x="21.042" y="1.67" class="m">коммита...</text></symbol><symbol id="15"><text y="1.67" class="f">⠦</text><text x="2.004" y="1.67" class="m">Создание</text><text x="11.022" y="1.67" class="m">сообщения</text><text x="21.042" y="1.67" class="m">коммита...</text></symbol><symbol id="16"><text y="1.67" class="f">⠧</text><text x="2.004" y="1.67" class="m">Создание</text><text x="11.022" y="1.67" class="m">сообщения</text><text x="21.042" y="1.67" class="m">коммита...</text></symbol><symbol id="17"><text y="1.67" class="g">Закоммитить</text><text x="12.024" y="1.67" class="g">с</text><text x="14.028" y="1.67" class="g">сообщением</text><text x="25.05" y="1.67" class="k">&apos;Добавлены</text><text x="36.072" y="1.67" class="k">начальные</text><text x="46.092" y="1.67" class="k">файлы</text><text x="52.104" y="1.67" class="k">проекта:</text><text x="61.122" y="1.67" class="k">README.md,</text><text x="72.144" y="1.67" class="k">commit_maker.cast,</text><text x="91.182" y="1.67" class="k">проект,</text><text x="99.198" y="1.67" class="k">r</text></symbol><symbol id="18"><text y="1.67" class="k">equirements.txt,</text><text x="17.034" y="1.67" class="k">run.py&apos;</text><text x="24.048" y="1.67" class="g">?</text><text x="26.052" y="1.67" class="g">[y/N/r]:</text><text x="35.07" y="1.67" class="g">r</text></symbol><symbol id="19"><text y="1.67" class="g">Закоммитить</text><text x="12.024" y="1.67" class="g">с</text><text x="14.028" y="1.67" class="g">сообщением</text><text x="25.05" y="1.67" class="k">&apos;Добавлены</text><text x="36.072" y="1.67" class="k">начальные</text><text x="46.092" y="1.67" class="k">файлы</text><text x="52.104" y="1.67" class="k">проекта</text><text x="60.12" y="1.67" class="k">Flask&apos;</text><text x="66.132" y="1.67" class="g">?</text><text x="68.136" y="1.67" class="g">[y/N/r]:</text><text x="77.154" y="1.67" class="g">y</text></symbol><symbol id="20"><text y="1.67" class="g">[master</text><text x="8.016" y="1.67" class="g">(корневой</text><text x="18.036" y="1.67" class="g">коммит)</text><text x="26.052" y="1.67" class="g">2f477d4]</text><text x="35.07" y="1.67" class="g">Добавлены</text><text x="45.09" y="1.67" class="g">начальные</text><text x="55.11" y="1.67" class="g">файлы</text><text x="61.122" y="1.67" class="g">проекта</text><text x="69.138" y="1.67" class="g">Flask</text></symbol><symbol id="21"><text x="1.002" y="1.67" class="g">7</text><text x="3.006" y="1.67" class="g">files</text><text x="9.018" y="1.67" class="g">changed,</text><text x="18.036" y="1.67" class="g">89</text><text x="21.042" y="1.67" class="g">insertions(+)</text></symbol><symbol id="22"><text x="1.002" y="1.67" class="g">create</text><text x="8.016" y="1.67" class="g">mode</text><text x="13.026" y="1.67" class="g">100644</text><text x="20.04" y="1.67" class="g">README.md</text></symbol><symbol id="23"><text x="1.002" y="1.67" class="g">create</text><text x="8.016" y="1.67" class="g">mode</text><text x="13.026" y="1.67" class="g">100644</text><text x="20.04" y="1.67" class="g">commit_maker.cast</text></symbol><symbol id="24"><text x="1.002" y="1.67" class="g">create</text><text x="8.016" y="1.67" class="g">mode</text><text x="13.026" y="1.67" class="g">100644</text><text x="20.04" y="1.67" class="g">project/Kairos/routes.py</text></symbol><symbol id="25"><text x="1.002" y="1.67" class="g">create</text><text x="8.016" y="1.67" class="g">mode</text><text x="13.026" y="1.67" class="g">100644</text><text x="20.04" y="1.67" class="g">project/__init__.py</text></symbol><symbol id="26"><text x="1.002" y="1.67" class="g">create</text><text x="8.016" y="1.67" class="g">mode</text><text x="13.026" y="1.67" class="g">100644</text><text x="20.04" y="1.67" class="g">project/config.py</text></symbol><symbol id="27"><text x="1.002" y="1.67" class="g">create</text><text x="8.016" y="1.67" class="g">mode</text><text x="13.026" y="1.67" class="g">100644</text><text x="20.04" y="1.67" class="g">requirements.txt</text></symbol><symbol id="28"><text x="1.002" y="1.67" class="g">create</text><text x="8.016" y="1.67" class="g">mode</text><text x="13.026" y="1.67" class="g">100644</text><text x="20.04" y="1.67" class="g">run.py</text></symbol><symbol id="29"><text y="1.67" class="n">Коммит</text><text x="7.014" y="1.67" class="n">успешно</text><text x="15.03" y="1.67" class="n">создан!</text></symbol><symbol id="30"><text y="1.67" class="f">project</text><text x="8.016" y="1.67" class="l">master!</text></symbol><symbol id="31"><text x="1.002" y="1.67" class="f">❯</text><text x="3.006" y="1.67" class="h">c</text></symbol><symbol id="a"><path fill="transparent" d="M0 0h100v21H0z"/></symbol><symbol id="b"><path fill="#6f7683" d="M0 0h1.102v2.171H0z"/></symbol></defs><path class="a" d="M0 0h100v43.42H0z"/><g style="animation-duration:27.390718s;animation-iteration-count:infinite;animation-name:q;animation-timing-function:steps(1,end)"><svg width="6600"><svg><use xlink:href="#a"/><use xlink:href="#b" x="4.996" y="4.317"/><use xlink:href="#1" y="2.171"/><text x="1.002" y="6.012" class="f">❯</text><text x="3.006" y="6.012" class="h">co</text></svg><svg x="100"><use xlink:href="#a"/><use xlink:href="#b" x="4.996" y="4.317"/><use xlink:href="#1" y="2.171"/><text x="1.002" y="6.012" class="f">❯</text><text x="3.006" y="6.012" class="s">co</text><text x="5.01" y="6.012" class="l">dium</text><text x="10.02" y="6.012" class="l">commit_maker.cast</text></svg><svg x="200"><use xlink:href="#a"/><use xlink:href="#b" x="5.996" y="4.317"/><use xlink:href="#1" y="2.171"/><text x="1.002" y="6.012" class="f">❯</text><text x="3.006" y="6.012" class="s">com</text></svg><svg x="300"><use xlink:href="#a"/><use xlink:href="#b" x="5.996" y="4.317"/><use xlink:href="#1" y="2.171"/><text x="1.002" y="6.012" class="f">❯</text><text x="3.006" y="6.012" class="s">com</text><text x="6.012" y="6.012" class="l">mit_maker</text><text x="16.032" y="6.012" class="l">-m</text><text x="19.038" y="6.012" class="l">100</text></svg><svg x="400"><use xlink:href="#a"/><use xlink:href="#b" x="21.996" y="4.317"/><use xlink:href="#1" y="2.171"/><use xlink:href="#2" y="4.342"/></svg><svg x="500"><use xlink:href="#a"/><use xlink:href="#b" x="21.996" y="4.317"/><use xlink:href="#1" y="2.171"/><use xlink:href="#2" y="4.342"/></svg><svg x="600"><use xlink:href="#a"/><use xlink:href="#b" x="21.996" y="4.317"/><use xlink:href="#1" y="2.171"/><use xlink:href="#3" y="4.342"/></svg><svg x="700"><use xlink:href="#a"/><use xlink:href="#b" x="-.004" y="6.488"/><use xlink:href="#1" y="2.171"/><use xlink:href="#3" y="4.342"/></svg><svg x="800"><use xlink:href="#a"/><use xlink:href="#b" x="-.004" y="6.488"/><use xlink:href="#1" y="2.171"/><use xlink:href="#3" y="4.342"/></svg><svg x="900"><use xlink:href="#a"/><use xlink:href="#b" x="-.004" y="6.488"/><use xlink:href="#1" y="2.171"/><use xlink:href="#3" y="4.342"/></svg><svg x="1000"><use xlink:href="#a"/><use xlink:href="#b" x="62.996" y="6.488"/><use xlink:href="#1" y="2.171"/><use xlink:href="#3" y="4.342"/><text y="8.183" class="j">Не</text><text x="3.006" y="8.183" class="j">инициализирован</text><text x="19.038" y="8.183" class="j">git</text><text x="23.046" y="8.183" class="j">репозиторий!</text><text x="36.072" y="8.183" class="g">Выполнить</text><text x="46.092" y="8.183" class="k">git</text><text x="50.1" y="8.183" class="k">init</text><text x="54.108" y="8.183" class="g">?</text><text x="56.112" y="8.183" class="g">[y/N]:</text></svg><svg x="1100"><use xlink:href="#a"/><use xlink:href="#b" x="63.996" y="6.488"/><use xlink:href="#1" y="2.171"/><use xlink:href="#3" y="4.342"/><use xlink:href="#4" y="6.513"/></svg><svg x="1200"><use xlink:href="#a"/><use xlink:href="#b" x="-.004" y="8.659"/><use xlink:href="#1" y="2.171"/><use xlink:href="#3" y="4.342"/><use xlink:href="#4" y="6.513"/></svg><svg x="1300"><use xlink:href="#a"/><use xlink:href="#b" x="59.996" y="8.659"/><use xlink:href="#1" y="2.171"/><use xlink:href="#3" y="4.342"/><use xlink:href="#4" y="6.513"/><use xlink:href="#5" y="8.684"/></svg><svg x="1400"><use xlink:href="#a"/><use xlink:href="#b" x="-.004" y="10.83"/><use xlink:href="#1" y="2.171"/><use xlink:href="#3" y="4.342"/><use xlink:href="#4" y="6.513"/><use xlink:href="#5" y="8.684"/></svg><svg x="1500"><use xlink:href="#a"/><use xlink:href="#b" x="-.004" y="13.001"/><use xlink:href="#1" y="2.171"/><use xlink:href="#3" y="4.342"/><use xlink:href="#4" y="6.513"/><use xlink:href="#5" y="8.684"/></svg><svg x="1600"><use xlink:href="#a"/><use xlink:href="#b" x="2.996" y="15.172"/><use xlink:href="#1" y="2.171"/><use xlink:href="#3" y="4.342"/><use xlink:href="#4" y="6.513"/><use xlink:href="#5" y="8.684"/><use xlink:href="#6" y="13.026"/><use xlink:href="#7" y="15.197"/></svg><svg x="1700"><use xlink:href="#a"/><use xlink:href="#b" x="21.996" y="15.172"/><use xlink:href="#1" y="2.171"/><use xlink:href="#3" y="4.342"/><use xlink:href="#4" y="6.513"/><use xlink:href="#5" y="8.684"/><use xlink:href="#6" y="13.026"/><use xlink:href="#2" y="15.197"/></svg><svg x="1800"><use xlink:href="#a"/><use xlink:href="#b" x="21.996" y="15.172"/><use xlink:href="#1" y="2.171"/><use xlink:href="#3" y="4.342"/><use xlink:href="#4" y="6.513"/><use xlink:href="#5" y="8.684"/><use xlink:href="#6" y="13.026"/><use xlink:href="#3" y="15.197"/></svg><svg x="1900"><use xlink:href="#a"/><use xlink:href="#b" x="-.004" y="17.343"/><use xlink:href="#1" y="2.171"/><use xlink:href="#3" y="4.342"/><use xlink:href="#4" y="6.513"/><use xlink:href="#5" y="8.684"/><use xlink:href="#6" y="13.026"/><use xlink:href="#3" y="15.197"/></svg><svg x="2000"><use xlink:href="#a"/><use xlink:href="#b" x="-.004" y="17.343"/><use xlink:href="#1" y="2.171"/><use xlink:href="#3" y="4.342"/><use xlink:href="#4" y="6.513"/><use xlink:href="#5" y="8.684"/><use xlink:href="#6" y="13.026"/><use xlink:href="#3" y="15.197"/></svg><svg x="2100"><use xlink:href="#a"/><use xlink:href="#b" x="-.004" y="17.343"/><use xlink:href="#1" y="2.171"/><use xlink:href="#3" y="4.342"/><use xlink:href="#4" y="6.513"/><use xlink:href="#5" y="8.684"/><use xlink:href="#6" y="13.026"/><use xlink:href="#3" y="15.197"/></svg><svg x="2200"><use xlink:href="#a"/><use xlink:href="#b" x="84.996" y="17.343"/><use xlink:href="#1" y="2.171"/><use xlink:href="#3" y="4.342"/><use xlink:href="#4" y="6.513"/><use xlink:href="#5" y="8.684"/><use xlink:href="#6" y="13.026"/><use xlink:href="#3" y="15.197"/><text y="19.038" class="j">Нет</text><text x="4.008" y="19.038" class="j">застейдженных</text><text x="18.036" y="19.038" class="j">изменений!</text><text x="29.058" y="19.038" class="g">Добавить</text><text x="38.076" y="19.038" class="g">всё</text><text x="42.084" y="19.038" class="g">автоматически</text><text x="56.112" y="19.038" class="g">с</text><text x="58.116" y="19.038" class="g">помощью</text><text x="66.132" y="19.038" class="k">git</text><text x="70.14" y="19.038" class="k">add</text><text x="74.148" y="19.038" class="k">-A</text><text x="76.152" y="19.038" class="g">?</text><text x="78.156" y="19.038" class="g">[y/N]:</text></svg><svg x="2300"><use xlink:href="#a"/><use xlink:href="#b" x="85.996" y="17.343"/><use xlink:href="#1" y="2.171"/><use xlink:href="#3" y="4.342"/><use xlink:href="#4" y="6.513"/><use xlink:href="#5" y="8.684"/><use xlink:href="#6" y="13.026"/><use xlink:href="#3" y="15.197"/><use xlink:href="#8" y="17.368"/></svg><svg x="2400"><use xlink:href="#a"/><use xlink:href="#b" x="-.004" y="19.514"/><use xlink:href="#1" y="2.171"/><use xlink:href="#3" y="4.342"/><use xlink:href="#4" y="6.513"/><use xlink:href="#5" y="8.684"/><use xlink:href="#6" y="13.026"/><use xlink:href="#3" y="15.197"/><use xlink:href="#8" y="17.368"/></svg><svg x="2500"><use xlink:href="#a"/><use xlink:href="#1" y="2.171"/><use xlink:href="#3" y="4.342"/><use xlink:href="#4" y="6.513"/><use xlink:href="#5" y="8.684"/><use xlink:href="#6" y="13.026"/><use xlink:href="#3" y="15.197"/><use xlink:href="#8" y="17.368"/></svg><svg x="2600"><use xlink:href="#a"/><use xlink:href="#1" y="2.171"/><use xlink:href="#3" y="4.342"/><use xlink:href="#4" y="6.513"/><use xlink:href="#5" y="8.684"/><use xlink:href="#6" y="13.026"/><use xlink:href="#3" y="15.197"/><use xlink:href="#8" y="17.368"/><use xlink:href="#9" y="19.539"/></svg><svg x="2700"><use xlink:href="#a"/><use xlink:href="#1" y="2.171"/><use xlink:href="#3" y="4.342"/><use xlink:href="#4" y="6.513"/><use xlink:href="#5" y="8.684"/><use xlink:href="#6" y="13.026"/><use xlink:href="#3" y="15.197"/><use xlink:href="#8" y="17.368"/><use xlink:href="#10" y="19.539"/></svg><svg x="2800"><use xlink:href="#a"/><use xlink:href="#1" y="2.171"/><use xlink:href="#3" y="4.342"/><use xlink:href="#4" y="6.513"/><use xlink:href="#5" y="8.684"/><use xlink:href="#6" y="13.026"/><use xlink:href="#3" y="15.197"/><use xlink:href="#8" y="17.368"/><use xlink:href="#11" y="19.539"/></svg><svg x="2900"><use xlink:href="#a"/><use xlink:href="#1" y="2.171"/><use xlink:href="#3" y="4.342"/><use xlink:href="#4" y="6.513"/><use xlink:href="#5" y="8.684"/><use xlink:href="#6" y="13.026"/><use xlink:href="#3" y="15.197"/><use xlink:href="#8" y="17.368"/><use xlink:href="#12" y="19.539"/></svg><svg x="3000"><use xlink:href="#a"/><use xlink:href="#1" y="2.171"/><use xlink:href="#3" y="4.342"/><use xlink:href="#4" y="6.513"/><use xlink:href="#5" y="8.684"/><use xlink:href="#6" y="13.026"/><use xlink:href="#3" y="15.197"/><use xlink:href="#8" y="17.368"/><use xlink:href="#13" y="19.539"/></svg><svg x="3100"><use xlink:href="#a"/><use xlink:href="#1" y="2.171"/><use xlink:href="#3" y="4.342"/><use xlink:href="#4" y="6.513"/><use xlink:href="#5" y="8.684"/><use xlink:href="#6" y="13.026"/><use xlink:href="#3" y="15.197"/><use xlink:href="#8" y="17.368"/><use xlink:href="#14" y="19.539"/></svg><svg x="3200"><use xlink:href="#a"/><use xlink:href="#1" y="2.171"/><use xlink:href="#3" y="4.342"/><use xlink:href="#4" y="6.513"/><use xlink:href="#5" y="8.684"/><use xlink:href="#6" y="13.026"/><use xlink:href="#3" y="15.197"/><use xlink:href="#8" y="17.368"/><use xlink:href="#15" y="19.539"/></svg><svg x="3300"><use xlink:href="#a"/><use xlink:href="#1" y="2.171"/><use xlink:href="#3" y="4.342"/><use xlink:href="#4" y="6.513"/><use xlink:href="#5" y="8.684"/><use xlink:href="#6" y="13.026"/><use xlink:href="#3" y="15.197"/><use xlink:href="#8" y="17.368"/><use xlink:href="#16" y="19.539"/></svg><svg x="3400"><use xlink:href="#a"/><use xlink:href="#1" y="2.171"/><use xlink:href="#3" y="4.342"/><use xlink:href="#4" y="6.513"/><use xlink:href="#5" y="8.684"/><use xlink:href="#6" y="13.026"/><use xlink:href="#3" y="15.197"/><use xlink:href="#8" y="17.368"/><text y="21.209" class="f">⠇</text><text x="2.004" y="21.209" class="m">Создание</text><text x="11.022" y="21.209" class="m">сообщения</text><text x="21.042" y="21.209" class="m">коммита...</text></svg><svg x="3500"><use xlink:href="#a"/><use xlink:href="#1" y="2.171"/><use xlink:href="#3" y="4.342"/><use xlink:href="#4" y="6.513"/><use xlink:href="#5" y="8.684"/><use xlink:href="#6" y="13.026"/><use xlink:href="#3" y="15.197"/><use xlink:href="#8" y="17.368"/><text y="21.209" class="f">⠏</text><text x="2.004" y="21.209" class="m">Создание</text><text x="11.022" y="21.209" class="m">сообщения</text><text x="21.042" y="21.209" class="m">коммита...</text></svg><svg x="3600"><use xlink:href="#a"/><use xlink:href="#1" y="2.171"/><use xlink:href="#3" y="4.342"/><use xlink:href="#4" y="6.513"/><use xlink:href="#5" y="8.684"/><use xlink:href="#6" y="13.026"/><use xlink:href="#3" y="15.197"/><use xlink:href="#8" y="17.368"/><use xlink:href="#9" y="19.539"/></svg><svg x="3700"><use xlink:href="#a"/><use xlink:href="#b" x="-.004" y="19.514"/><use xlink:href="#1" y="2.171"/><use xlink:href="#3" y="4.342"/><use xlink:href="#4" y="6.513"/><use xlink:href="#5" y="8.684"/><use xlink:href="#6" y="13.026"/><use xlink:href="#3" y="15.197"/><use xlink:href="#8" y="17.368"/></svg><svg x="3800"><use xlink:href="#a"/><use xlink:href="#b" x="34.996" y="21.685"/><use xlink:href="#1" y="2.171"/><use xlink:href="#3" y="4.342"/><use xlink:href="#4" y="6.513"/><use xlink:href="#5" y="8.684"/><use xlink:href="#6" y="13.026"/><use xlink:href="#3" y="15.197"/><use xlink:href="#8" y="17.368"/><use xlink:href="#17" y="19.539"/><text y="23.38" class="k">equirements.txt,</text><text x="17.034" y="23.38" class="k">run.py&apos;</text><text x="24.048" y="23.38" class="g">?</text><text x="26.052" y="23.38" class="g">[y/N/r]:</text></svg><svg x="3900"><use xlink:href="#a"/><use xlink:href="#b" x="35.996" y="21.685"/><use xlink:href="#1" y="2.171"/><use xlink:href="#3" y="4.342"/><use xlink:href="#4" y="6.513"/><use xlink:href="#5" y="8.684"/><use xlink:href="#6" y="13.026"/><use xlink:href="#3" y="15.197"/><use xlink:href="#8" y="17.368"/><use xlink:href="#17" y="19.539"/><use xlink:href="#18" y="21.71"/></svg><svg x="4000"><use xlink:href="#a"/><use xlink:href="#b" x="-.004" y="23.856"/><use xlink:href="#1" y="2.171"/><use xlink:href="#3" y="4.342"/><use xlink:href="#4" y="6.513"/><use xlink:href="#5" y="8.684"/><use xlink:href="#6" y="13.026"/><use xlink:href="#3" y="15.197"/><use xlink:href="#8" y="17.368"/><use xlink:href="#17" y="19.539"/><use xlink:href="#18" y="21.71"/></svg><svg x="4100"><use xlink:href="#a"/><use xlink:href="#1" y="2.171"/><use xlink:href="#3" y="4.342"/><use xlink:href="#4" y="6.513"/><use xlink:href="#5" y="8.684"/><use xlink:href="#6" y="13.026"/><use xlink:href="#3" y="15.197"/><use xlink:href="#8" y="17.368"/><use xlink:href="#17" y="19.539"/><use xlink:href="#18" y="21.71"/></svg><svg x="4200"><use xlink:href="#a"/><use xlink:href="#1" y="2.171"/><use xlink:href="#3" y="4.342"/><use xlink:href="#4" y="6.513"/><use xlink:href="#5" y="8.684"/><use xlink:href="#6" y="13.026"/><use xlink:href="#3" y="15.197"/><use xlink:href="#8" y="17.368"/><use xlink:href="#17" y="19.539"/><use xlink:href="#18" y="21.71"/><use xlink:href="#9" y="23.881"/></svg><svg x="4300"><use xlink:href="#a"/><use xlink:href="#1" y="2.171"/><use xlink:href="#3" y="4.342"/><use xlink:href="#4" y="6.513"/><use xlink:href="#5" y="8.684"/><use xlink:href="#6" y="13.026"/><use xlink:href="#3" y="15.197"/><use xlink:href="#8" y="17.368"/><use xlink:href="#17" y="19.539"/><use xlink:href="#18" y="21.71"/><use xlink:href="#10" y="23.881"/></svg><svg x="4400"><use xlink:href="#a"/><use xlink:href="#1" y="2.171"/><use xlink:href="#3" y="4.342"/><use xlink:href="#4" y="6.513"/><use xlink:href="#5" y="8.684"/><use xlink:href="#6" y="13.026"/><use xlink:href="#3" y="15.197"/><use xlink:href="#8" y="17.368"/><use xlink:href="#17" y="19.539"/><use xlink:href="#18" y="21.71"/><use xlink:href="#11" y="23.881"/></svg><svg x="4500"><use xlink:href="#a"/><use xlink:href="#1" y="2.171"/><use xlink:href="#3" y="4.342"/><use xlink:href="#4" y="6.513"/><use xlink:href="#5" y="8.684"/><use xlink:href="#6" y="13.026"/><use xlink:href="#3" y="15.197"/><use xlink:href="#8" y="17.368"/><use xlink:href="#17" y="19.539"/><use xlink:href="#18" y="21.71"/><use xlink:href="#12" y="23.881"/></svg><svg x="4600"><use xlink:href="#a"/><use xlink:href="#1" y="2.171"/><use xlink:href="#3" y="4.342"/><use xlink:href="#4" y="6.513"/><use xlink:href="#5" y="8.684"/><use xlink:href="#6" y="13.026"/><use xlink:href="#3" y="15.197"/><use xlink:href="#8" y="17.368"/><use xlink:href="#17" y="19.539"/><use xlink:href="#18" y="21.71"/><use xlink:href="#13" y="23.881"/></svg><svg x="4700"><use xlink:href="#a"/><use xlink:href="#1" y="2.171"/><use xlink:href="#3" y="4.342"/><use xlink:href="#4" y="6.513"/><use xlink:href="#5" y="8.684"/><use xlink:href="#6" y="13.026"/><use xlink:href="#3" y="15.197"/><use xlink:href="#8" y="17.368"/><use xlink:href="#17" y="19.539"/><use xlink:href="#18" y="21.71"/><use xlink:href="#14" y="23.881"/></svg><svg x="4800"><use xlink:href="#a"/><use xlink:href="#1" y="2.171"/><use xlink:href="#3" y="4.342"/><use xlink:href="#4" y="6.513"/><use xlink:href="#5" y="8.684"/><use xlink:href="#6" y="13.026"/><use xlink:href="#3" y="15.197"/><use xlink:href="#8" y="17.368"/><use xlink:href="#17" y="19.539"/><use xlink:href="#18" y="21.71"/><use xlink:href="#15" y="23.881"/></svg><svg x="4900"><use xlink:href="#a"/><use xlink:href="#1" y="2.171"/><use xlink:href="#3" y="4.342"/><use xlink:href="#4" y="6.513"/><use xlink:href="#5" y="8.684"/><use xlink:href="#6" y="13.026"/><use xlink:href="#3" y="15.197"/><use xlink:href="#8" y="17.368"/><use xlink:href="#17" y="19.539"/><use xlink:href="#18" y="21.71"/><use xlink:href="#16" y="23.881"/></svg><svg x="5000"><use xlink:href="#a"/><use xlink:href="#b" x="76.996" y="23.856"/><use xlink:href="#1" y="2.171"/><use xlink:href="#3" y="4.342"/><use xlink:href="#4" y="6.513"/><use xlink:href="#5" y="8.684"/><use xlink:href="#6" y="13.026"/><use xlink:href="#3" y="15.197"/><use xlink:href="#8" y="17.368"/><use xlink:href="#17" y="19.539"/><use xlink:href="#18" y="21.71"/><text y="25.551" class="g">Закоммитить</text><text x="12.024" y="25.551" class="g">с</text><text x="14.028" y="25.551" class="g">сообщением</text><text x="25.05" y="25.551" class="k">&apos;Добавлены</text><text x="36.072" y="25.551" class="k">начальные</text><text x="46.092" y="25.551" class="k">файлы</text><text x="52.104" y="25.551" class="k">проекта</text><text x="60.12" y="25.551" class="k">Flask&apos;</text><text x="66.132" y="25.551" class="g">?</text><text x="68.136" y="25.551" class="g">[y/N/r]:</text></svg><svg x="5100"><use xlink:href="#a"/><use xlink:href="#b" x="77.996" y="23.856"/><use xlink:href="#1" y="2.171"/><use xlink:href="#3" y="4.342"/><use xlink:href="#4" y="6.513"/><use xlink:href="#5" y="8.684"/><use xlink:href="#6" y="13.026"/><use xlink:href="#3" y="15.197"/><use xlink:href="#8" y="17.368"/><use xlink:href="#17" y="19.539"/><use xlink:href="#18" y="21.71"/><use xlink:href="#19" y="23.881"/></svg><svg x="5200"><use xlink:href="#a"/><use xlink:href="#b" x="-.004" y="26.027"/><use xlink:href="#1" y="2.171"/><use xlink:href="#3" y="4.342"/><use xlink:href="#4" y="6.513"/><use xlink:href="#5" y="8.684"/><use xlink:href="#6" y="13.026"/><use xlink:href="#3" y="15.197"/><use xlink:href="#8" y="17.368"/><use xlink:href="#17" y="19.539"/><use xlink:href="#18" y="21.71"/><use xlink:href="#19" y="23.881"/></svg><svg x="5300"><use xlink:href="#a"/><use xlink:href="#b" x="-.004" y="28.198"/><use xlink:href="#1" y="2.171"/><use xlink:href="#3" y="4.342"/><use xlink:href="#4" y="6.513"/><use xlink:href="#5" y="8.684"/><use xlink:href="#6" y="13.026"/><use xlink:href="#3" y="15.197"/><use xlink:href="#8" y="17.368"/><use xlink:href="#17" y="19.539"/><use xlink:href="#18" y="21.71"/><use xlink:href="#19" y="23.881"/><use xlink:href="#20" y="26.052"/></svg><svg x="5400"><use xlink:href="#a"/><use xlink:href="#b" x="-.004" y="43.395"/><use xlink:href="#1"/><use xlink:href="#3" y="2.171"/><use xlink:href="#4" y="4.342"/><use xlink:href="#5" y="6.513"/><use xlink:href="#6" y="10.855"/><use xlink:href="#3" y="13.026"/><use xlink:href="#8" y="15.197"/><use xlink:href="#17" y="17.368"/><use xlink:href="#18" y="19.539"/><use xlink:href="#19" y="21.71"/><use xlink:href="#20" y="23.881"/><use xlink:href="#21" y="26.052"/><use xlink:href="#22" y="28.223"/><use xlink:href="#23" y="30.394"/><use xlink:href="#24" y="32.565"/><use xlink:href="#25" y="34.736"/><use xlink:href="#26" y="36.907"/><use xlink:href="#27" y="39.078"/><use xlink:href="#28" y="41.249"/></svg><svg x="5500"><use xlink:href="#a"/><use xlink:href="#b" x="-.004" y="43.395"/><use xlink:href="#3"/><use xlink:href="#4" y="2.171"/><use xlink:href="#5" y="4.342"/><use xlink:href="#6" y="8.684"/><use xlink:href="#3" y="10.855"/><use xlink:href="#8" y="13.026"/><use xlink:href="#17" y="15.197"/><use xlink:href="#18" y="17.368"/><use xlink:href="#19" y="19.539"/><use xlink:href="#20" y="21.71"/><use xlink:href="#21" y="23.881"/><use xlink:href="#22" y="26.052"/><use xlink:href="#23" y="28.223"/><use xlink:href="#24" y="30.394"/><use xlink:href="#25" y="32.565"/><use xlink:href="#26" y="34.736"/><use xlink:href="#27" y="36.907"/><use xlink:href="#28" y="39.078"/><use xlink:href="#29" y="41.249"/></svg><svg x="5600"><use xlink:href="#a"/><use xlink:href="#b" x="-.004" y="43.395"/><use xlink:href="#4"/><use xlink:href="#5" y="2.171"/><use xlink:href="#6" y="6.513"/><use xlink:href="#3" y="8.684"/><use xlink:href="#8" y="10.855"/><use xlink:href="#17" y="13.026"/><use xlink:href="#18" y="15.197"/><use xlink:href="#19" y="17.368"/><use xlink:href="#20" y="19.539"/><use xlink:href="#21" y="21.71"/><use xlink:href="#22" y="23.881"/><use xlink:href="#23" y="26.052"/><use xlink:href="#24" y="28.223"/><use xlink:href="#25" y="30.394"/><use xlink:href="#26" y="32.565"/><use xlink:href="#27" y="34.736"/><use xlink:href="#28" y="36.907"/><use xlink:href="#29" y="39.078"/></svg><svg x="5700"><use xlink:href="#a"/><use xlink:href="#b" x="2.996" y="43.395"/><use xlink:href="#5"/><use xlink:href="#6" y="4.342"/><use xlink:href="#3" y="6.513"/><use xlink:href="#8" y="8.684"/><use xlink:href="#17" y="10.855"/><use xlink:href="#18" y="13.026"/><use xlink:href="#19" y="15.197"/><use xlink:href="#20" y="17.368"/><use xlink:href="#21" y="19.539"/><use xlink:href="#22" y="21.71"/><use xlink:href="#23" y="23.881"/><use xlink:href="#24" y="26.052"/><use xlink:href="#25" y="28.223"/><use xlink:href="#26" y="30.394"/><use xlink:href="#27" y="32.565"/><use xlink:href="#28" y="34.736"/><use xlink:href="#29" y="36.907"/><use xlink:href="#30" y="41.249"/><use xlink:href="#7" y="43.42"/></svg><svg x="5800"><use xlink:href="#a"/><use xlink:href="#b" x="3.996" y="43.395"/><use xlink:href="#5"/><use xlink:href="#6" y="4.342"/><use xlink:href="#3" y="6.513"/><use xlink:href="#8" y="8.684"/><use xlink:href="#17" y="10.855"/><use xlink:href="#18" y="13.026"/><use xlink:href="#19" y="15.197"/><use xlink:href="#20" y="17.368"/><use xlink:href="#21" y="19.539"/><use xlink:href="#22" y="21.71"/><use xlink:href="#23" y="23.881"/><use xlink:href="#24" y="26.052"/><use xlink:href="#25" y="28.223"/><use xlink:href="#26" y="30.394"/><use xlink:href="#27" y="32.565"/><use xlink:href="#28" y="34.736"/><use xlink:href="#29" y="36.907"/><use xlink:href="#30" y="41.249"/><use xlink:href="#31" y="43.42"/></svg><svg x="5900"><use xlink:href="#a"/><use xlink:href="#b" x="3.996" y="43.395"/><use xlink:href="#5"/><use xlink:href="#6" y="4.342"/><use xlink:href="#3" y="6.513"/><use xlink:href="#8" y="8.684"/><use xlink:href="#17" y="10.855"/><use xlink:href="#18" y="13.026"/><use xlink:href="#19" y="15.197"/><use xlink:href="#20" y="17.368"/><use xlink:href="#21" y="19.539"/><use xlink:href="#22" y="21.71"/><use xlink:href="#23" y="23.881"/><use xlink:href="#24" y="26.052"/><use xlink:href="#25" y="28.223"/><use xlink:href="#26" y="30.394"/><use xlink:href="#27" y="32.565"/><use xlink:href="#28" y="34.736"/><use xlink:href="#29" y="36.907"/><use xlink:href="#30" y="41.249"/><text x="1.002" y="45.09" class="f">❯</text><text x="3.006" y="45.09" class="h">c</text><text x="4.008" y="45.09" class="l">ommit_maker</text><text x="16.032" y="45.09" class="l">-m</text><text x="19.038" y="45.09" class="l">100</text></svg><svg x="6000"><use xlink:href="#a"/><use xlink:href="#b" x="-.004" y="43.395"/><use xlink:href="#6" y="2.171"/><use xlink:href="#3" y="4.342"/><use xlink:href="#8" y="6.513"/><use xlink:href="#17" y="8.684"/><use xlink:href="#18" y="10.855"/><use xlink:href="#19" y="13.026"/><use xlink:href="#20" y="15.197"/><use xlink:href="#21" y="17.368"/><use xlink:href="#22" y="19.539"/><use xlink:href="#23" y="21.71"/><use xlink:href="#24" y="23.881"/><use xlink:href="#25" y="26.052"/><use xlink:href="#26" y="28.223"/><use xlink:href="#27" y="30.394"/><use xlink:href="#28" y="32.565"/><use xlink:href="#29" y="34.736"/><use xlink:href="#30" y="39.078"/><use xlink:href="#31" y="41.249"/></svg><svg x="6100"><use xlink:href="#a"/><use xlink:href="#b" x="-.004" y="43.395"/><use xlink:href="#6" y="2.171"/><use xlink:href="#3" y="4.342"/><use xlink:href="#8" y="6.513"/><use xlink:href="#17" y="8.684"/><use xlink:href="#18" y="10.855"/><use xlink:href="#19" y="13.026"/><use xlink:href="#20" y="15.197"/><use xlink:href="#21" y="17.368"/><use xlink:href="#22" y="19.539"/><use xlink:href="#23" y="21.71"/><use xlink:href="#24" y="23.881"/><use xlink:href="#25" y="26.052"/><use xlink:href="#26" y="28.223"/><use xlink:href="#27" y="30.394"/><use xlink:href="#28" y="32.565"/><use xlink:href="#29" y="34.736"/><use xlink:href="#30" y="39.078"/><use xlink:href="#31" y="41.249"/></svg><svg x="6200"><use xlink:href="#a"/><use xlink:href="#b" x="-.004" y="43.395"/><use xlink:href="#6" y="2.171"/><use xlink:href="#3" y="4.342"/><use xlink:href="#8" y="6.513"/><use xlink:href="#17" y="8.684"/><use xlink:href="#18" y="10.855"/><use xlink:href="#19" y="13.026"/><use xlink:href="#20" y="15.197"/><use xlink:href="#21" y="17.368"/><use xlink:href="#22" y="19.539"/><use xlink:href="#23" y="21.71"/><use xlink:href="#24" y="23.881"/><use xlink:href="#25" y="26.052"/><use xlink:href="#26" y="28.223"/><use xlink:href="#27" y="30.394"/><use xlink:href="#28" y="32.565"/><use xlink:href="#29" y="34.736"/><use xlink:href="#30" y="39.078"/><use xlink:href="#31" y="41.249"/></svg><svg x="6300"><use xlink:href="#a"/><use xlink:href="#b" x="-.004"/></svg><svg x="6400"><use xlink:href="#a"/><use xlink:href="#b" x="-.004" y="2.146"/></svg><svg x="6500"><use xlink:href="#a"/><use xlink:href="#b" x="-.004" y="2.146"/></svg></svg></g></g></svg></svg>